<?xml version="1.0" encoding="UTF-8" standalone="no"?>
<!-- Created with Inkscape (http://www.inkscape.org/) -->

<svg
   xmlns:dc="http://purl.org/dc/elements/1.1/"
   xmlns:cc="http://creativecommons.org/ns#"
   xmlns:rdf="http://www.w3.org/1999/02/22-rdf-syntax-ns#"
   xmlns:svg="http://www.w3.org/2000/svg"
   xmlns="http://www.w3.org/2000/svg"
   xmlns:sodipodi="http://sodipodi.sourceforge.net/DTD/sodipodi-0.dtd"
   xmlns:inkscape="http://www.inkscape.org/namespaces/inkscape"
   width="347.41556mm"
   height="225.01578mm"
   viewBox="0 0 1231 797.3"
   id="svg8620"
   version="1.1"
   inkscape:version="0.91 r13725"
   sodipodi:docname="icon set.svg">
  <defs
     id="defs8622">
    <clipPath
       clipPathUnits="userSpaceOnUse"
       id="clipPath8424">
      <path
         inkscape:connector-curvature="0"
         class="st16"
         d="m -916.73097,-222.22733 c 46.44541,0 84.11674,37.67133 84.11674,84.11675 0,46.540785 -37.67133,84.212117 -84.11674,84.212117 l 0,-168.328867 z"
         style="clip-rule:evenodd;fill:#c89e29;fill-opacity:1;fill-rule:evenodd"
         id="path8426" />
    </clipPath>
    <clipPath
       clipPathUnits="userSpaceOnUse"
       id="clipPath8240">
      <path
         inkscape:connector-curvature="0"
         class="st6"
         d="m -209.9429,327.78363 c 48.7,0 88.3,39.5 88.3,88.2 0,48.7 -39.6,88.2 -88.3,88.2 l 0,-176.4 z"
         style="clip-rule:evenodd;fill:#8f8f5c;fill-opacity:1;fill-rule:evenodd"
         id="path8242" />
    </clipPath>
  </defs>
  <sodipodi:namedview
     id="base"
     pagecolor="#ffffff"
     bordercolor="#666666"
     borderopacity="1.0"
     inkscape:pageopacity="0.0"
     inkscape:pageshadow="2"
     inkscape:zoom="0.35"
     inkscape:cx="734.78569"
     inkscape:cy="198.65001"
     inkscape:document-units="px"
     inkscape:current-layer="layer1"
     showgrid="false"
     fit-margin-top="0"
     fit-margin-left="0"
     fit-margin-right="0"
     fit-margin-bottom="0"
     inkscape:window-width="1368"
     inkscape:window-height="849"
     inkscape:window-x="-8"
     inkscape:window-y="-8"
     inkscape:window-maximized="1" />
  <metadata
     id="metadata8625">
    <rdf:RDF>
      <cc:Work
         rdf:about="">
        <dc:format>image/svg+xml</dc:format>
        <dc:type
           rdf:resource="http://purl.org/dc/dcmitype/StillImage" />
        <dc:title></dc:title>
      </cc:Work>
    </rdf:RDF>
  </metadata>
  <g
     inkscape:label="Layer 1"
     inkscape:groupmode="layer"
     id="layer1"
     transform="translate(1204.0714,66.2878)">
    <path
       inkscape:connector-curvature="0"
       class="st0"
       d="m -1115.8714,-66.2878 c 48.8,0 88.3,39.5 88.3,88.200005 0,48.799995 -39.5,88.299995 -88.3,88.299995 -48.7,0 -88.2,-39.5 -88.2,-88.299995 0,-48.700005 39.5,-88.200005 88.2,-88.200005 l 0,0 z"
       style="clip-rule:evenodd;fill:#6890f0;fill-opacity:1;fill-rule:evenodd"
       id="path8073"
       inkscape:export-filename="C:\Users\kli\Desktop\Graphics\Fun\Squad\icons\water.png"
       inkscape:export-xdpi="90"
       inkscape:export-ydpi="90" />
    <path
       inkscape:connector-curvature="0"
       class="st1"
       d="m -1115.8714,-66.2878 c 48.8,0 88.3,39.5 88.3,88.200005 0,48.799995 -39.5,88.299995 -88.3,88.299995 l 0,-176.5 z"
       style="clip-rule:evenodd;fill:#4d7ced;fill-opacity:1;fill-rule:evenodd"
       id="path8075"
       inkscape:export-filename="C:\Users\kli\Desktop\Graphics\Fun\Squad\icons\water.png"
       inkscape:export-xdpi="90"
       inkscape:export-ydpi="90" />
    <path
       inkscape:connector-curvature="0"
       class="st2"
       d="m -1079.3714,-33.7878 c -16.6,2.1 -33.8,9.2 -47.9,19.4 -49,35.099995 -32.7,92.3 17,86.4 21,-2.40001 32.7,-18.99999 32.3,-35.49999 -0.2,-8.700005 -3.7,-15.200005 -11,-24.100005 -13.2,-15.8000003 -5,-33.500005 11.5,-42.600005 4.6,-2.7 3.1,-4.3 -1.9,-3.6 l 0,0 z"
       style="clip-rule:evenodd;fill:#becff9;fill-opacity:1;fill-rule:evenodd"
       id="path8077"
       inkscape:export-filename="C:\Users\kli\Desktop\Graphics\Fun\Squad\icons\water.png"
       inkscape:export-xdpi="90"
       inkscape:export-ydpi="90" />
    <path
       inkscape:connector-curvature="0"
       class="st3"
       d="m -1079.3714,-33.7878 c -12.2,1.6 -24.9,5.9 -36.5,12.1 l 0,94.09999 c 1.9,0 3.7,-0.19999 5.6,-0.4 21,-2.4 32.7,-19 32.3,-35.5 -0.2,-8.699995 -3.7,-15.199995 -11,-24.099995 -13.2,-15.8000003 -5,-33.499995 11.5,-42.599995 4.6,-2.7 3.1,-4.3 -1.9,-3.6 l 0,0 z"
       style="clip-rule:evenodd;fill:#a0b9f6;fill-opacity:1;fill-rule:evenodd"
       id="path8079"
       inkscape:export-filename="C:\Users\kli\Desktop\Graphics\Fun\Squad\icons\water.png"
       inkscape:export-xdpi="90"
       inkscape:export-ydpi="90" />
    <path
       inkscape:connector-curvature="0"
       class="st4"
       d="m -1099.3714,11.612205 c 3.2,0 5.8,3.19999 5.8,7.19999 0,4.1 -2.6,7.3 -5.8,7.3 -3.2,0 -5.8,-3.19999 -5.8,-7.3 0,-4 2.5,-7.19999 5.8,-7.19999 l 0,0 z"
       style="clip-rule:evenodd;fill:#ffffff;fill-rule:evenodd"
       id="path8081"
       inkscape:export-filename="C:\Users\kli\Desktop\Graphics\Fun\Squad\icons\water.png"
       inkscape:export-xdpi="90"
       inkscape:export-ydpi="90" />
    <path
       inkscape:connector-curvature="0"
       class="st4"
       d="m -1091.7714,26.712195 c 1.2,0 2.2,1.2 2.2,2.80001 0,1.4 -1,2.69999 -2.2,2.69999 -1.2,0 -2.1,-1.19999 -2.1,-2.69999 0,-1.6 0.9,-2.80001 2.1,-2.80001 l 0,0 z"
       style="clip-rule:evenodd;fill:#ffffff;fill-rule:evenodd"
       id="path8083"
       inkscape:export-filename="C:\Users\kli\Desktop\Graphics\Fun\Squad\icons\water.png"
       inkscape:export-xdpi="90"
       inkscape:export-ydpi="90" />
    <path
       id="path8085"
       style="fill:#414042"
       d="m -1159.5714,159.7122 -4.7,-19.7 4.1,0 2.9,13.5 3.7,-13.5 4.7,0 3.4,13.7 3,-13.7 4,0 -4.8,19.7 -4.2,0 -3.9,-14.80001 -3.9,14.80001 -4.3,0 z m 39.4,0 -4.4,0 -1.7,-4.60001 -7.9,0 -1.6,4.60001 -4.2,0 7.7,-19.7 4.1,0 8,19.7 z m -7.3,-7.80001 -2.8,-7.3 -2.7,7.3 5.5,0 z m 11.8,7.80001 0,-16.30001 -5.9,0 0,-3.3 15.7,0 0,3.3 -5.9,0 0,16.30001 -3.9,0 z m 12.4,0 0,-19.7 14.6,0 0,3.3 -10.7,0 0,4.3 9.9,0 0,3.30001 -9.9,0 0,5.29999 11,0 0,3.3 -14.9,0 z m 18.3,0 0,-19.7 8.3,0 c 2.1,0 3.6,0.1 4.6,0.6 0.9,0.3 1.7,0.9 2.2,1.9 0.7,0.9 0.9,1.9 0.9,3 0,1.6 -0.4,2.8 -1.3,3.7 -0.8,1 -2.1,1.6 -3.9,1.89999 0.9,0.4 1.7,1 2.2,1.60001 0.6,0.69999 1.2,1.69999 2.2,3.19999 l 2.3,3.9 -4.7,0 -2.9,-4.3 c -1,-1.6 -1.7,-2.4 -2.1,-2.9 -0.3,-0.3 -0.8,-0.7 -1.2,-0.8 -0.3,-0.2 -1,-0.2 -2,-0.2 l -0.8,0 0,8.2 -3.8,0 z m 3.9,-11.30001 3,0 c 1.9,0 3,-0.1 3.6,-0.3 0.4,-0.1 0.8,-0.3 1.1,-0.8 0.2,-0.4 0.3,-0.9 0.3,-1.4 0,-0.7 -0.1,-1.2 -0.4,-1.7 -0.4,-0.3 -0.9,-0.7 -1.6,-0.8 -0.3,0 -1.2,0 -2.9,0 l -3.1,0 0,5 z"
       class="st5"
       inkscape:connector-curvature="0" />
    <path
       id="path8089"
       style="clip-rule:evenodd;fill:#f08030;fill-opacity:1;fill-rule:evenodd"
       d="m -913.17143,-66.2878 c 48.8,0 88.3,39.5 88.3,88.200005 0,48.799995 -39.5,88.299995 -88.3,88.299995 -48.7,0 -88.19997,-39.5 -88.19997,-88.299995 0,-48.700005 39.49997,-88.200005 88.19997,-88.200005 l 0,0 z"
       class="st6"
       inkscape:connector-curvature="0"
       inkscape:export-filename="C:\Users\kli\Desktop\Graphics\Fun\Squad\icons\fire.png"
       inkscape:export-xdpi="90"
       inkscape:export-ydpi="90" />
    <path
       id="path8091"
       style="clip-rule:evenodd;fill:#eb6c11;fill-opacity:1;fill-rule:evenodd"
       d="m -913.17143,-66.2878 c 48.8,0 88.3,39.5 88.3,88.200005 0,48.799995 -39.5,88.299995 -88.3,88.299995 l 0,-176.5 z"
       class="st7"
       inkscape:connector-curvature="0"
       inkscape:export-filename="C:\Users\kli\Desktop\Graphics\Fun\Squad\icons\fire.png"
       inkscape:export-xdpi="90"
       inkscape:export-ydpi="90" />
    <path
       id="path8093"
       style="clip-rule:evenodd;fill:#b92025;fill-rule:evenodd"
       d="m -970.77143,42.4122 c 2.6,0.9 3.3,6.3 8.2,5.9 2.4,-0.2 2,-0.80001 1,-2.9 -2.8,-6.1 -10,-22.600005 -3.8,-33.900005 7.8,-14.0000003 14.3,-19.9000003 15,-23.399995 0.6,-3.3 4.7,4.6999947 0,13.9999947 -3,5.9 -1.1,10.5000003 0.7,13.0000003 3,4.1 1.9,1.7 2.2,-1.6 0.7,-6.1000003 3.9,-18.3000003 18.6,-26.699995 20.2,-11.5 3.4,-29.8 6.8,-31.4 3.4,-1.6 23.7,6.8 30.6,31.7 6.8,24.899995 -0.7,31.999995 3.3,33.599995 4.1,1.6 25.6,-13.0000003 28.4,-18.9000003 0.7,-1.29999998 1.6,-0.89999998 2.3,0.9 2.6,5.8 3.9,24.9000003 -10.2,37.3999953 -1.4,1.2 -2.8,2.9 0.1,2.7 4.7,-0.2 12.5,-1.6 18.1,-6.8 3.2,-2.799995 4.7,-7.799995 3.9,0.7 -0.6,5.8 -3.8,15.2 -17.6,22.6 -9.6,5.1 -16,15.8 -26.8,22.7 -11.3,7.2 -27.7,8.3 -40.4,4.3 -16,-4.9 -12,-17.5 -28.6,-25.2 -8.8,-4.1 -12.9,-14.5 -13,-17.8 0.1,-0.9 0.3,-1.1 1.2,-0.9 l 0,0 z"
       class="st8"
       inkscape:connector-curvature="0"
       inkscape:export-filename="C:\Users\kli\Desktop\Graphics\Fun\Squad\icons\fire.png"
       inkscape:export-xdpi="90"
       inkscape:export-ydpi="90" />
    <path
       id="path8095"
       style="clip-rule:evenodd;fill:#8f191c;fill-rule:evenodd"
       d="m -913.17143,-41.8878 c 7.5,4.1 17.2,13.2 21.7,29.1 6.8,24.900005 -0.7,32.000005 3.3,33.599995 4.1,1.6 25.6,-13.0000003 28.4,-18.9000003 0.7,-1.29999998 1.6,-0.9 2.3,0.9 2.6,5.80001 3.9,24.9000003 -10.2,37.4000053 -1.4,1.2 -2.8,2.9 0.1,2.7 4.7,-0.2 12.5,-1.6 18.1,-6.80001 3.2,-2.799995 4.7,-7.799995 3.9,0.7 -0.6,5.8 -3.8,15.2 -17.6,22.6 -9.6,5.1 -16,15.8 -26.8,22.7 -6.6,4.2 -14.9,6.3 -23.2,6.7 l 0,-130.69999 z"
       class="st9"
       inkscape:connector-curvature="0"
       inkscape:export-filename="C:\Users\kli\Desktop\Graphics\Fun\Squad\icons\fire.png"
       inkscape:export-xdpi="90"
       inkscape:export-ydpi="90" />
    <path
       id="path8097"
       style="clip-rule:evenodd;fill:#f3b81a;fill-rule:evenodd"
       d="m -916.07143,84.71219 c 0,0 -15.3,-0.4 -19.5,-9 -4.2,-8.6 4.1,-10.69999 0.9,-15.19998 -3.2,-4.6 -5.6,-8.6 -2.1,-7.30001 3.3,1.2 13,7.80001 13.5,2.2 0.4,-5.7 -5,-13.2 -0.1,-19.1 4.8,-5.900005 9.9,-7.500005 10.1,-14.500005 0.1,-7 6,4 2.4,9.6 -3.6,5.699995 -7,7.199995 -1.3,11.300005 5.6,4.2 7,2.30001 6.7,7.30001 -0.3,5 7.2,7.8 11.5,1 4.2,-6.90002 -2.1,-16 -0.9,-15.80001 1.2,0.30001 8.9,12.30001 4.7,20.1 -2,3.69999 -1.9,5.19999 -1.2,6.8 8,18.90001 -9.2,23.1 -24.7,22.6 l 0,0 z"
       class="st10"
       inkscape:connector-curvature="0"
       inkscape:export-filename="C:\Users\kli\Desktop\Graphics\Fun\Squad\icons\fire.png"
       inkscape:export-xdpi="90"
       inkscape:export-ydpi="90" />
    <path
       id="path8099"
       style="clip-rule:evenodd;fill:#f48b20;fill-rule:evenodd"
       d="m -913.17143,20.212195 c 1,-3.4 5.6,6.1 2.3,11.1 -0.8,1.3 -1.6,2.3 -2.3,3.299995 l 0,-14.399995 z m 0,21.800015 c 0.3,0.19999 0.7,0.4 1,0.69999 5.6,4.2 7,2.30001 6.7,7.30001 -0.3,5 7.2,7.8 11.5,1 4.2,-6.90002 -2.1,-16 -0.9,-15.80001 1.2,0.30001 8.9,12.30001 4.7,20.1 -2,3.69999 -1.9,5.19999 -1.2,6.8 7.6,17.6 -7,22.40001 -21.7,22.6 l 0,-42.7 z"
       class="st6"
       inkscape:connector-curvature="0"
       inkscape:export-filename="C:\Users\kli\Desktop\Graphics\Fun\Squad\icons\fire.png"
       inkscape:export-xdpi="90"
       inkscape:export-ydpi="90" />
    <path
       inkscape:connector-curvature="0"
       class="st5"
       d="m -941.57143,159.7122 0,-19.7 13.5,0 0,3.3 -9.6,0 0,4.7 8.2,0 0,3.3 -8.2,0 0,8.29999 -3.9,0 z m 16.5,0 0,-19.7 4,0 0,19.7 -4,0 z m 7.8,0 0,-19.7 8.3,0 c 2.1,0 3.7,0.1 4.6,0.6 1,0.3 1.8,0.9 2.3,1.9 0.6,0.9 0.8,1.9 0.8,3 0,1.6 -0.3,2.8 -1.2,3.7 -0.9,1 -2.2,1.6 -3.9,1.89999 0.8,0.4 1.6,1 2.1,1.60001 0.6,0.69999 1.3,1.69999 2.2,3.19999 l 2.4,3.9 -4.8,0 -2.9,-4.3 c -1,-1.6 -1.7,-2.4 -2.1,-2.9 -0.3,-0.3 -0.7,-0.7 -1.1,-0.8 -0.4,-0.2 -1.1,-0.2 -2,-0.2 l -0.8,0 0,8.2 -3.9,0 z m 4,-11.30001 2.9,0 c 1.9,0 3.1,-0.1 3.6,-0.3 0.4,-0.1 0.9,-0.3 1.1,-0.8 0.2,-0.4 0.4,-0.9 0.4,-1.4 0,-0.7 -0.2,-1.2 -0.6,-1.7 -0.3,-0.3 -0.9,-0.7 -1.6,-0.8 -0.2,0 -1.2,0 -2.9,0 l -3,0 0,5 z m 15.8,11.30001 0,-19.7 14.6,0 0,3.3 -10.6,0 0,4.3 9.8,0 0,3.30001 -9.8,0 0,5.29999 10.9,0 0,3.3 -14.9,0 z"
       style="fill:#414042"
       id="path8101" />
    <path
       id="path8105"
       style="clip-rule:evenodd;fill:#78c850;fill-opacity:1;fill-rule:evenodd"
       d="m -703.57143,-66.2878 c 48.8,0 88.3,39.5 88.3,88.200005 0,48.799995 -39.5,88.299995 -88.3,88.299995 -48.7,0 -88.2,-39.5 -88.2,-88.299995 0,-48.700005 39.4,-88.200005 88.2,-88.200005 l 0,0 z"
       class="st11"
       inkscape:connector-curvature="0"
       inkscape:export-filename="C:\Users\kli\Desktop\Graphics\Fun\Squad\icons\grass.png"
       inkscape:export-xdpi="90"
       inkscape:export-ydpi="90" />
    <path
       id="path8107"
       style="clip-rule:evenodd;fill:#559c31;fill-opacity:1;fill-rule:evenodd"
       d="m -703.57143,-66.2878 c 48.8,0 88.3,39.5 88.3,88.200005 0,48.799995 -39.5,88.299995 -88.3,88.299995 l 0,-176.5 z"
       class="st12"
       inkscape:connector-curvature="0"
       inkscape:export-filename="C:\Users\kli\Desktop\Graphics\Fun\Squad\icons\grass.png"
       inkscape:export-xdpi="90"
       inkscape:export-ydpi="90" />
    <path
       id="path8109"
       style="clip-rule:evenodd;fill:#e8e85f;fill-rule:evenodd"
       d="m -707.37143,-40.0878 c -17.2,14 -68.1,77.1 -8.6,110.19999 13.1,7.30001 8.8,23.1 8.8,23.1 1.6,0.30001 5.4,0.30001 7,0 0,0 -4.3,-15.69999 8.8,-23.1 67.6,-38.599985 4.4,-63.5999853 -8.5,-110.09999 -1.1,-4 -4.5,-2.6 -7.5,-0.1 l 0,0 z"
       class="st13"
       inkscape:connector-curvature="0"
       inkscape:export-filename="C:\Users\kli\Desktop\Graphics\Fun\Squad\icons\grass.png"
       inkscape:export-xdpi="90"
       inkscape:export-ydpi="90" />
    <path
       id="path8111"
       style="clip-rule:evenodd;fill:#bfd330;fill-rule:evenodd"
       d="m -703.57143,93.41219 c 1.3,0 2.7,-0.1 3.4,-0.19999 0,0 -4.3,-15.7 8.8,-23.1 67.6,-38.599995 4.4,-63.5999953 -8.5,-110.1 -0.7,-2.3 -2.1,-2.8 -3.8,-2.3 l 0,135.70001 z"
       class="st14"
       inkscape:connector-curvature="0"
       inkscape:export-filename="C:\Users\kli\Desktop\Graphics\Fun\Squad\icons\grass.png"
       inkscape:export-xdpi="90"
       inkscape:export-ydpi="90" />
    <path
       inkscape:connector-curvature="0"
       class="st5"
       d="m -740.57143,152.5122 0,-3.3 8.6,0 0,7.8 c -0.9,0.89999 -2.1,1.6 -3.7,2.1 -1.6,0.70001 -3.1,1 -4.8,1 -2,0 -3.9,-0.4 -5.3,-1.29999 -1.6,-0.9 -2.7,-2.10001 -3.4,-3.70001 -0.8,-1.69999 -1.2,-3.29999 -1.2,-5.19999 0,-2.10001 0.4,-3.9 1.3,-5.4 0.9,-1.7 2.1,-2.9 3.8,-3.7 1.2,-0.7 2.8,-1 4.7,-1 2.4,0 4.3,0.4 5.8,1.6 1.3,1 2.2,2.4 2.6,4.2 l -3.9,0.69999 c -0.3,-0.9 -0.8,-1.69999 -1.6,-2.19999 -0.8,-0.6 -1.8,-0.9 -2.9,-0.9 -1.7,0 -3.1,0.59999 -4.1,1.69999 -1,1.1 -1.6,2.8 -1.6,4.9 0,2.30001 0.6,4.10001 1.6,5.2 1,1.2 2.4,1.8 4.1,1.8 0.8,0 1.7,-0.1 2.4,-0.39999 0.9,-0.3 1.6,-0.8 2.2,-1.2 l 0,-2.4 -4.6,0 z m 12.3,7.2 0,-19.7 8.3,0 c 2.1,0 3.6,0.1 4.6,0.6 1,0.3 1.7,0.9 2.3,1.9 0.6,0.9 0.8,1.9 0.8,3 0,1.6 -0.4,2.8 -1.2,3.7 -0.9,1 -2.2,1.6 -3.9,1.89999 0.8,0.4 1.6,1 2.1,1.60001 0.6,0.69999 1.3,1.69999 2.2,3.19999 l 2.4,3.9 -4.8,0 -2.9,-4.3 c -1,-1.6 -1.7,-2.4 -2.1,-2.9 -0.3,-0.3 -0.8,-0.7 -1.1,-0.8 -0.4,-0.2 -1.1,-0.2 -2,-0.2 l -0.9,0 0,8.2 -3.8,0 z m 3.9,-11.30001 3,0 c 1.9,0 3.1,-0.1 3.6,-0.3 0.4,-0.1 0.9,-0.3 1.1,-0.8 0.2,-0.4 0.4,-0.9 0.4,-1.4 0,-0.7 -0.2,-1.2 -0.6,-1.7 -0.3,-0.3 -0.9,-0.7 -1.6,-0.8 -0.3,0 -1.2,0 -2.9,0 l -3.1,0 0,5 z m 33.5,11.30001 -4.2,0 -1.8,-4.60001 -7.9,0 -1.6,4.60001 -4.2,0 7.7,-19.7 4.2,0 7.8,19.7 z m -7.2,-7.80001 -2.8,-7.3 -2.7,7.3 5.5,0 z m 8.4,1.4 3.9,-0.3 c 0.2,1.2 0.7,2.2 1.4,2.8 0.7,0.7 1.7,1 2.9,1 1.2,0 2.2,-0.3 2.9,-0.9 0.6,-0.6 0.9,-1.1 0.9,-1.89999 0,-0.4 -0.1,-0.8 -0.3,-1.10001 -0.3,-0.3 -0.8,-0.69999 -1.4,-0.89999 -0.4,-0.2 -1.6,-0.4 -3.2,-0.9 -2.1,-0.6 -3.6,-1.1 -4.4,-1.9 -1.2,-1.1 -1.8,-2.39999 -1.8,-3.99999 0,-1 0.2,-1.9 0.8,-2.8 0.6,-0.9 1.4,-1.60001 2.4,-2 1.1,-0.4 2.4,-0.7 3.9,-0.7 2.4,0 4.3,0.6 5.6,1.6 1.2,1.1 1.9,2.6 2,4.3 l -4,0.2 c -0.1,-1 -0.6,-1.8 -1.1,-2.2 -0.6,-0.4 -1.3,-0.7 -2.4,-0.7 -1.2,0 -2.1,0.3 -2.8,0.8 -0.3,0.2 -0.6,0.7 -0.6,1.2 0,0.4 0.2,0.9 0.6,1.1 0.6,0.4 1.7,0.9 3.7,1.3 1.9,0.4 3.3,1 4.2,1.4 1,0.4 1.7,1.1 2.2,2 0.6,0.9 0.8,1.9 0.8,3.1 0,1.1 -0.3,2.2 -0.9,3.2 -0.7,0.9 -1.6,1.7 -2.7,2.1 -1.2,0.6 -2.6,0.8 -4.3,0.8 -2.4,0 -4.3,-0.6 -5.7,-1.8 -1.5,-1 -2.3,-2.6 -2.6,-4.8 l 0,0 z m 18.3,0 3.9,-0.3 c 0.2,1.2 0.7,2.2 1.3,2.8 0.8,0.7 1.7,1 2.9,1 1.3,0 2.2,-0.3 2.9,-0.9 0.7,-0.6 1,-1.1 1,-1.89999 0,-0.4 -0.1,-0.8 -0.4,-1.10001 -0.2,-0.3 -0.7,-0.69999 -1.4,-0.89999 -0.4,-0.2 -1.4,-0.4 -3.1,-0.9 -2.1,-0.6 -3.7,-1.1 -4.4,-1.9 -1.2,-1.1 -1.9,-2.39999 -1.9,-3.99999 0,-1 0.3,-1.9 0.9,-2.8 0.6,-0.9 1.3,-1.60001 2.4,-2 1.1,-0.4 2.3,-0.7 3.9,-0.7 2.4,0 4.3,0.6 5.6,1.6 1.2,1.1 1.9,2.6 2,4.3 l -4,0.2 c -0.2,-1 -0.6,-1.8 -1.1,-2.2 -0.6,-0.4 -1.3,-0.7 -2.6,-0.7 -1.1,0 -2,0.3 -2.7,0.8 -0.4,0.2 -0.7,0.7 -0.7,1.2 0,0.4 0.2,0.9 0.7,1.1 0.4,0.4 1.7,0.9 3.7,1.3 1.9,0.4 3.3,1 4.2,1.4 0.9,0.4 1.7,1.1 2.2,2 0.4,0.9 0.8,1.9 0.8,3.1 0,1.1 -0.3,2.2 -1,3.2 -0.6,0.9 -1.4,1.7 -2.7,2.1 -1.1,0.6 -2.6,0.8 -4.2,0.8 -2.4,0 -4.4,-0.6 -5.8,-1.8 -1.4,-1 -2.2,-2.6 -2.4,-4.8 l 0,0 z"
       style="fill:#414042"
       id="path8113" />
    <path
       id="path8117"
       style="clip-rule:evenodd;fill:#e0c068;fill-opacity:1;fill-rule:evenodd"
       d="m -497.47143,-66.2878 c 48.7,0 88.2,39.5 88.2,88.200005 0,48.799995 -39.5,88.299995 -88.2,88.299995 -48.7,0 -88.3,-39.5 -88.3,-88.299995 0,-48.700005 39.6,-88.200005 88.3,-88.200005 l 0,0 z"
       class="st15"
       inkscape:connector-curvature="0"
       inkscape:export-filename="C:\Users\kli\Desktop\Graphics\Fun\Squad\icons\ground.png"
       inkscape:export-xdpi="90"
       inkscape:export-ydpi="90" />
    <path
       id="path8119"
       style="clip-rule:evenodd;fill:#c89e29;fill-opacity:1;fill-rule:evenodd"
       d="m -497.47143,-66.2878 c 48.7,0 88.2,39.5 88.2,88.200005 0,48.799995 -39.5,88.299995 -88.2,88.299995 l 0,-176.5 z"
       class="st16"
       inkscape:connector-curvature="0"
       inkscape:export-filename="C:\Users\kli\Desktop\Graphics\Fun\Squad\icons\ground.png"
       inkscape:export-xdpi="90"
       inkscape:export-ydpi="90" />
    <path
       inkscape:connector-curvature="0"
       class="st5"
       d="m -546.67143,152.5122 0,-3.3 8.6,0 0,7.8 c -0.8,0.89999 -2,1.6 -3.6,2.1 -1.6,0.70001 -3.2,1 -4.8,1 -2.1,0 -3.9,-0.4 -5.4,-1.29999 -1.4,-0.9 -2.7,-2.10001 -3.4,-3.70001 -0.8,-1.69999 -1.1,-3.29999 -1.1,-5.19999 0,-2.10001 0.4,-3.9 1.2,-5.4 0.9,-1.7 2.1,-2.9 3.8,-3.7 1.3,-0.7 2.9,-1 4.8,-1 2.4,0 4.3,0.4 5.7,1.6 1.3,1 2.2,2.4 2.7,4.2 l -4,0.69999 c -0.2,-0.9 -0.8,-1.69999 -1.6,-2.19999 -0.7,-0.6 -1.7,-0.9 -2.8,-0.9 -1.8,0 -3.1,0.59999 -4.2,1.69999 -1,1.1 -1.4,2.8 -1.4,4.9 0,2.30001 0.4,4.10001 1.6,5.2 1,1.2 2.3,1.8 4,1.8 0.9,0 1.7,-0.1 2.6,-0.39999 0.8,-0.3 1.6,-0.8 2.1,-1.2 l 0,-2.4 -4.8,0 z m 12.2,7.2 0,-19.7 8.3,0 c 2.1,0 3.7,0.1 4.7,0.6 0.9,0.3 1.7,0.9 2.2,1.9 0.6,0.9 0.9,1.9 0.9,3 0,1.6 -0.4,2.8 -1.3,3.7 -0.9,1 -2.1,1.6 -3.9,1.89999 0.9,0.4 1.6,1 2.1,1.60001 0.6,0.69999 1.3,1.69999 2.3,3.19999 l 2.3,3.9 -4.7,0 -2.9,-4.3 c -1,-1.6 -1.8,-2.4 -2.1,-2.9 -0.3,-0.3 -0.8,-0.7 -1.2,-0.8 -0.4,-0.2 -1.1,-0.2 -2,-0.2 l -0.8,0 0,8.2 -3.9,0 z m 4,-11.30001 2.9,0 c 1.9,0 3.1,-0.1 3.6,-0.3 0.6,-0.1 0.9,-0.3 1.1,-0.8 0.3,-0.4 0.4,-0.9 0.4,-1.4 0,-0.7 -0.2,-1.2 -0.6,-1.7 -0.3,-0.3 -0.8,-0.7 -1.4,-0.8 -0.3,0 -1.3,0 -2.9,0 l -3.1,0 0,5 z m 15,1.5 c 0,-2 0.3,-3.69999 0.9,-5 0.4,-1 1.1,-1.9 1.9,-2.69999 0.8,-0.80001 1.6,-1.40001 2.6,-1.80001 1.2,-0.6 2.6,-0.8 4.2,-0.8 2.9,0 5.2,0.9 6.9,2.7 1.8,1.8 2.7,4.3 2.7,7.5 0,3.2 -0.9,5.7 -2.7,7.5 -1.7,1.9 -4,2.8 -6.9,2.8 -2.9,0 -5.2,-0.89999 -7,-2.7 -1.7,-1.8 -2.6,-4.39999 -2.6,-7.5 l 0,0 z m 4.1,-0.1 c 0,2.2 0.6,3.9 1.6,5.1 1,1.10001 2.3,1.7 3.9,1.7 1.6,0 2.9,-0.6 3.9,-1.7 1,-1.19999 1.6,-2.89999 1.6,-5.1 0,-2.3 -0.6,-4 -1.6,-5.1 -0.9,-1.1 -2.2,-1.7 -3.9,-1.7 -1.7,0 -2.9,0.6 -4,1.7 -0.9,1.2 -1.5,2.9 -1.5,5.1 l 0,0 z m 18.1,-9.8 4,0 0,10.7 c 0,1.7 0,2.8 0.1,3.2 0.2,0.8 0.6,1.4 1.2,2 0.7,0.4 1.6,0.7 2.7,0.7 1.1,0 2,-0.2 2.6,-0.7 0.6,-0.4 0.9,-1 1,-1.7 0.1,-0.7 0.2,-1.8 0.2,-3.3 l 0,-10.9 3.9,0 0,10.3 c 0,2.3 -0.1,4 -0.3,5 -0.2,0.9 -0.6,1.8 -1.1,2.4 -0.6,0.7 -1.3,1.2 -2.3,1.6 -1,0.4 -2.2,0.7 -3.8,0.7 -1.9,0 -3.3,-0.2 -4.3,-0.7 -0.9,-0.4 -1.7,-1 -2.2,-1.7 -0.6,-0.8 -1,-1.4 -1.1,-2.2 -0.3,-1.1 -0.4,-2.8 -0.4,-5 l 0,-10.4 z m 19.9,19.7 0,-19.7 3.9,0 8,13.1 0,-13.1 3.7,0 0,19.70001 -3.9,0 -8,-12.90001 0,12.90001 -3.7,0 z m 19.8,-19.7 7.2,0 c 1.7,0 2.9,0.1 3.8,0.3 1.1,0.3 2.1,1 3,1.9 0.8,0.8 1.4,1.9 1.8,3.1 0.4,1.2 0.7,2.8 0.7,4.7 0,1.6 -0.2,3 -0.6,4.2 -0.6,1.3 -1.2,2.6 -2.1,3.4 -0.7,0.7 -1.7,1.2 -2.8,1.6 -0.9,0.2 -2.1,0.4 -3.6,0.4 l -7.4,0 0,-19.6 z m 4,3.4 0,13 2.9,0 c 1.1,0 2,-0.1 2.4,-0.2 0.7,-0.1 1.2,-0.4 1.6,-0.8 0.4,-0.4 0.8,-1 1.1,-1.9 0.2,-0.9 0.3,-2.1 0.3,-3.7 0,-1.4 -0.1,-2.7 -0.3,-3.4 -0.3,-0.8 -0.7,-1.4 -1.1,-1.9 -0.6,-0.4 -1.1,-0.8 -1.9,-1 -0.6,-0.1 -1.7,-0.1 -3.2,-0.1 l -1.8,0 z"
       style="fill:#414042"
       id="path8125" />
    <path
       id="path8129"
       style="clip-rule:evenodd;fill:#b8a038;fill-opacity:1;fill-rule:evenodd"
       d="m -279.37143,-66.2878 c 48.7,0 88.2,39.5 88.2,88.200005 0,48.799995 -39.5,88.299995 -88.2,88.299995 -48.8,0 -88.3,-39.5 -88.3,-88.299995 0,-48.700005 39.5,-88.200005 88.3,-88.200005 l 0,0 z"
       class="st19"
       inkscape:connector-curvature="0"
       inkscape:export-filename="C:\Users\kli\Desktop\Graphics\Fun\Squad\icons\rock.png"
       inkscape:export-xdpi="90"
       inkscape:export-ydpi="90" />
    <path
       id="path8131"
       style="clip-rule:evenodd;fill:#9c872f;fill-opacity:1;fill-rule:evenodd"
       d="m -279.37143,-66.2878 c 48.7,0 88.2,39.5 88.2,88.200005 0,48.799995 -39.5,88.299995 -88.2,88.299995 l 0,-176.5 z"
       class="st20"
       inkscape:connector-curvature="0"
       inkscape:export-filename="C:\Users\kli\Desktop\Graphics\Fun\Squad\icons\rock.png"
       inkscape:export-xdpi="90"
       inkscape:export-ydpi="90" />
    <path
       id="path8133"
       style="clip-rule:evenodd;fill:#948339;fill-opacity:1;fill-rule:evenodd"
       d="m -329.77143,66.71219 c -10.5,-3 -10.9,-6 -7.6,-14 12.7,-30.999995 31.3,-60.0999853 47.8,-77.69999 3.1,-3.3 7.5,-2.8 11,0 5.2,3.9 6.1,10.5 11,16.9999947 1.8,2.4 14.7,2 16.5,4.7 1.6,2.30000002 3.2,4.9 4.8,7.6 1.9,3.2 3.7,6.5000003 5.3,9.5000003 3.7,6.6 4.3,8.7 0.3,15.2 l -21.4,34.999995 c -3.3,5.4 -6.2,7.2 -12.6,7.2 -21.1,0.3 -43.4,-1.2 -55.1,-4.5 l 0,0 z m 102.9,-26.19998 c 1.9,4 3.7,8.09998 5.3,12.19999 3.3,8 3,11 -7.6,14 -4.3,1.19999 -10.1,2.19999 -16.8,2.9 -6,0.69999 -5.2,-2.80001 -2.7,-6.80001 l 11.2,-18.69999 c 5.4,-8.4 6.3,-12.800005 10.6,-3.59999 l 0,0 z"
       class="st21"
       inkscape:connector-curvature="0"
       inkscape:export-filename="C:\Users\kli\Desktop\Graphics\Fun\Squad\icons\rock.png"
       inkscape:export-xdpi="90"
       inkscape:export-ydpi="90" />
    <path
       id="path8135"
       style="clip-rule:evenodd;fill:#796b2f;fill-opacity:1;fill-rule:evenodd"
       d="m -279.37143,-25.6878 c 0.2,0.1 0.6,0.3 0.9,0.7 5.2,3.9 6.1,10.5 11,16.9999947 1.8,2.4 14.7,2 16.5,4.7 1.6,2.30000002 3.2,4.9 4.8,7.6 1.9,3.2 3.7,6.5000003 5.3,9.5000003 3.7,6.6 4.3,8.7 0.3,15.2 l -21.4,34.999995 c -3.3,5.4 -6.2,7.2 -12.6,7.2 -1.7,0.1 -3.3,0.1 -4.9,0.1 l 0,-96.99999 z m 25.2,-4.1 c 4.6,0 10.6,4.8 10.6,9.1 0,4.2 -5.9,9.6 -10.5,9.6 -4.7,0 -6.1,-5.3 -6.1,-9.6 -0.1,-4.3 1.3,-9.1 6,-9.1 l 0,0 z m 27.3,70.29999 c 1.9,4 3.7,8.1 5.3,12.2 3.3,8 3,11 -7.6,14 -4.3,1.2 -10.1,2.2 -16.8,2.9 -6,0.7 -5.2,-2.8 -2.7,-6.8 l 11.2,-18.7 c 5.4,-8.4 6.3,-12.799995 10.6,-3.6 l 0,0 z"
       class="st22"
       inkscape:connector-curvature="0"
       inkscape:export-filename="C:\Users\kli\Desktop\Graphics\Fun\Squad\icons\rock.png"
       inkscape:export-xdpi="90"
       inkscape:export-ydpi="90" />
    <path
       inkscape:connector-curvature="0"
       class="st5"
       d="m -317.17143,159.7122 0,-19.7 8.3,0 c 2.1,0 3.7,0.1 4.7,0.6 0.9,0.3 1.7,0.9 2.2,1.9 0.6,0.9 0.9,1.9 0.9,3 0,1.6 -0.4,2.8 -1.3,3.7 -0.9,1 -2.1,1.6 -3.9,1.89999 0.9,0.4 1.6,1 2.1,1.60001 0.6,0.69999 1.3,1.69999 2.3,3.19999 l 2.3,3.9 -4.8,0 -2.8,-4.3 c -1.1,-1.6 -1.8,-2.4 -2.1,-2.9 -0.4,-0.3 -0.8,-0.7 -1.2,-0.8 -0.4,-0.2 -1.1,-0.2 -2,-0.2 l -0.8,0 0,8.2 -3.9,0 z m 4,-11.30001 2.9,0 c 1.9,0 3.1,-0.1 3.6,-0.3 0.6,-0.1 0.9,-0.3 1.1,-0.8 0.3,-0.4 0.4,-0.9 0.4,-1.4 0,-0.7 -0.2,-1.2 -0.6,-1.7 -0.3,-0.3 -0.8,-0.7 -1.4,-0.8 -0.3,0 -1.3,0 -2.9,0 l -3.1,0 0,5 z m 15,1.5 c 0,-2 0.3,-3.69999 0.9,-5 0.4,-1 1.1,-1.9 1.9,-2.69999 0.8,-0.80001 1.6,-1.40001 2.6,-1.80001 1.2,-0.6 2.6,-0.8 4.2,-0.8 2.9,0 5.2,0.9 6.9,2.7 1.8,1.8 2.7,4.3 2.7,7.5 0,3.2 -0.9,5.7 -2.7,7.5 -1.7,1.9 -4,2.8 -6.9,2.8 -2.9,0 -5.2,-0.89999 -7,-2.7 -1.7,-1.8 -2.6,-4.39999 -2.6,-7.5 l 0,0 z m 4.1,-0.1 c 0,2.2 0.6,3.9 1.6,5.1 1,1.10001 2.3,1.7 3.9,1.7 1.6,0 2.9,-0.6 3.9,-1.7 1,-1.19999 1.6,-2.89999 1.6,-5.1 0,-2.3 -0.6,-4 -1.6,-5.1 -0.9,-1.1 -2.2,-1.7 -3.9,-1.7 -1.7,0 -3,0.6 -4,1.7 -1,1.2 -1.5,2.9 -1.5,5.1 l 0,0 z m 30.7,2.7 3.8,1.2 c -0.6,2.1 -1.6,3.7 -2.9,4.8 -1.4,1 -3.1,1.6 -5.2,1.6 -2.7,0 -4.8,-0.89999 -6.5,-2.7 -1.7,-1.8 -2.6,-4.19999 -2.6,-7.3 0,-3.3 0.9,-5.8 2.6,-7.7 1.7,-1.8 3.9,-2.69999 6.7,-2.69999 2.4,0 4.3,0.69999 5.9,2.09999 0.9,0.90001 1.6,2 2,3.7 l -4,0.9 c -0.2,-1 -0.7,-1.8 -1.4,-2.4 -0.7,-0.6 -1.6,-0.9 -2.7,-0.9 -1.4,0 -2.7,0.60001 -3.6,1.60001 -0.9,1.1 -1.3,2.8 -1.3,5.1 0,2.4 0.4,4.2 1.3,5.30001 0.9,1 2.1,1.6 3.4,1.6 1.1,0 2,-0.3 2.8,-1 0.8,-0.8 1.4,-1.8 1.7,-3.2 l 0,0 z m 7.3,7.2 0,-19.7 4,0 0,8.7 8,-8.7 5.3,0 -7.3,7.7 7.8,12 -5.1,0 -5.4,-9.2 -3.2,3.2 0,6 -4.1,0 z"
       style="fill:#414042"
       id="path8137" />
    <path
       id="path8141"
       style="clip-rule:evenodd;fill:#b8b8d0;fill-opacity:1;fill-rule:evenodd"
       d="m -61.371429,-66.2878 c 48.7,0 88.3,39.5 88.3,88.200005 0,48.799995 -39.6,88.299995 -88.3,88.299995 -48.700001,0 -88.200001,-39.5 -88.200001,-88.299995 0,-48.700005 39.5,-88.200005 88.200001,-88.200005 l 0,0 z"
       class="st23"
       inkscape:connector-curvature="0"
       inkscape:export-filename="C:\Users\kli\Desktop\Graphics\Fun\Squad\icons\steel.png"
       inkscape:export-xdpi="90"
       inkscape:export-ydpi="90" />
    <path
       id="path8143"
       style="clip-rule:evenodd;fill:#9090b5;fill-opacity:1;fill-rule:evenodd"
       d="m -61.371429,-66.2878 c 48.7,0 88.3,39.5 88.3,88.200005 0,48.799995 -39.6,88.299995 -88.3,88.299995 l 0,-176.5 z"
       class="st24"
       inkscape:connector-curvature="0"
       inkscape:export-filename="C:\Users\kli\Desktop\Graphics\Fun\Squad\icons\steel.png"
       inkscape:export-xdpi="90"
       inkscape:export-ydpi="90" />
    <path
       id="path8145"
       style="clip-rule:evenodd;fill:#9e9ebf;fill-opacity:1;fill-rule:evenodd"
       d="m -59.371429,65.51219 36.1,-62.8999953 c 0.9,-1.69999998 -0.2,-3.39999998 -2,-3.39999998 l -72.5,0.2 c -2.2,0 -3.100001,1.59999998 -2,3.39999998 l 36.5,62.6999953 c 1.1,2 2.7,2 3.9,0 l 0,0 z m -14.7,26.9 -16.7,-9.6 c -1.8,-1.09999 -2.7,-2.4 -2.7,-4.59999 l 0,-8.90001 c 0,-3.3 1.6,-3.8 4.1,-2.19999 l 22.5,12.90001 c 3,2 7.6,2 10.6,0 l 22.4,-12.90001 c 2.7,-1.59999 4.2,-1.09999 4.2,2.19999 l 0,8.90001 c 0,2.09999 -0.9,3.4 -2.7,4.59999 l -16.8,9.6 c -8.2,4.9 -16.5,4.9 -24.9,0 l 0,0 z m 79.6000004,-94.0999953 0,19.4000103 c 0,1.99999 -0.8,3.59999 -2.6,4.59999 l -7.8,4.4 c -2.9,1.7 -4,0.6 -4,-2.4 l 0,-26.0000003 c 0.2,-3.69999 -2.1000004,-7.599995 -5.3000004,-9.0999947 l -22.4,-13 c -2.7,-1.4 -3.1,-3 -0.2,-4.7 l 7.8,-4.6 c 1.8,-1 3.4,-0.9 5.2,0.1 l 16.8000004,9.7 c 8.3,4.8 12.5,12.1 12.5,21.5999947 l 0,0 z M -115.77143,-23.4878 l 16.700001,-9.7 c 1.8,-1 3.6,-1.1 5.2,-0.1 l 7.8,4.4 c 2.9,1.7 2.4,3.3 -0.1,4.8 l -22.500001,12.9 c -3.2,1.6999997 -5.4,5.6999947 -5.2,9.1999947 l 0,25.8000003 c 0,3 -1.2,4.2 -4,2.6 l -7.8,-4.4 c -1.8,-1 -2.6,-2.6 -2.6,-4.7 l 0,-19.1999903 c 0.1,-9.6000047 4.2,-16.8000047 12.5,-21.6000047 l 0,0 z"
       class="st21"
       inkscape:connector-curvature="0"
       inkscape:export-filename="C:\Users\kli\Desktop\Graphics\Fun\Squad\icons\steel.png"
       inkscape:export-xdpi="90"
       inkscape:export-ydpi="90" />
    <path
       id="path8147"
       style="clip-rule:evenodd;fill:#6a6a9c;fill-opacity:1;fill-rule:evenodd"
       d="m -59.371429,65.51219 36.1,-62.8999953 c 0.9,-1.69999998 -0.2,-3.39999998 -2,-3.39999998 l -36.1,0.1 0,67.79999528 c 0.7,0 1.4,-0.6 2,-1.6 l 0,0 z m -2,16 0,14.6 c 4.1,-0.1 8.2,-1.2 12.2,-3.7 l 16.8,-9.6 c 1.8,-1.09999 2.7,-2.4 2.7,-4.59999 l 0,-8.90001 c 0,-3.3 -1.6,-3.8 -4.2,-2.19999 l -22.4,12.90001 c -1.4,1 -3.2,1.5 -5.1,1.5 l 0,0 z m 66.9000004,-83.1999953 0,19.4000103 c 0,1.99999 -0.8,3.59999 -2.6,4.59999 l -7.8,4.4 c -2.9,1.7 -4,0.6 -4,-2.4 l 0,-26.0000003 c 0.2,-3.69999 -2.1000004,-7.599995 -5.3000004,-9.0999947 l -22.4,-13 c -2.7,-1.4 -3.1,-3 -0.2,-4.7 l 7.8,-4.6 c 1.8,-1 3.4,-0.9 5.2,0.1 l 16.8000004,9.7 c 8.3,4.8 12.5,12.1 12.5,21.5999947 l 0,0 z"
       class="st22"
       inkscape:connector-curvature="0"
       inkscape:export-filename="C:\Users\kli\Desktop\Graphics\Fun\Squad\icons\steel.png"
       inkscape:export-xdpi="90"
       inkscape:export-ydpi="90" />
    <path
       inkscape:connector-curvature="0"
       class="st5"
       d="m -103.97143,153.3122 3.9,-0.3 c 0.200001,1.2 0.700001,2.2 1.400001,2.8 0.7,0.7 1.7,1 2.9,1 1.2,0 2.2,-0.3 2.9,-0.89999 0.7,-0.60001 0.9,-1.10001 0.9,-1.9 0,-0.4 -0.1,-0.80001 -0.3,-1.1 -0.3,-0.30001 -0.8,-0.70001 -1.4,-0.9 -0.4,-0.2 -1.6,-0.4 -3.2,-0.9 -2.1,-0.6 -3.600001,-1.1 -4.400001,-1.9 -1.2,-1.1 -1.8,-2.4 -1.8,-4 0,-1 0.2,-1.9 0.8,-2.8 0.7,-0.9 1.4,-1.6 2.600001,-2 1,-0.4 2.3,-0.7 3.8,-0.7 2.6,0 4.3,0.6 5.6,1.6 1.3,1.1 2,2.6 2,4.3 l -4,0.2 c -0.1,-1 -0.4,-1.8 -1,-2.2 -0.6,-0.4 -1.4,-0.7 -2.6,-0.7 -1.1,0 -2.1,0.3 -2.7,0.8 -0.4,0.2 -0.7,0.7 -0.7,1.2 0,0.4 0.2,0.9 0.6,1.1 0.6,0.4 1.8,0.9 3.7,1.3 1.9,0.4 3.3,1 4.3,1.4 0.9,0.4 1.6,1.1 2.1,2 0.5,0.9 0.8,1.9 0.8,3.1 0,1.1 -0.3,2.2 -0.9,3.2 -0.7,0.9 -1.6,1.7 -2.7,2.1 -1.1,0.6 -2.6,0.8 -4.3,0.8 -2.4,0 -4.3,-0.6 -5.700001,-1.8 -1.5,-1 -2.3,-2.6 -2.6,-4.8 l 0,0 z m 23.800001,6.4 0,-16.30001 -5.8,0 0,-3.3 15.6,0 0,3.3 -5.8,0 0,16.30001 -4,0 z m 12.3,0 0,-19.7 14.6,0 0,3.3 -10.6,0 0,4.3 9.8,0 0,3.30001 -9.8,0 0,5.29999 10.9,0 0,3.3 -14.9,0 z m 18.4,0 0,-19.7 14.6,0 0,3.3 -10.7,0 0,4.3 9.9,0 0,3.30001 -9.9,0 0,5.29999 11,0 0,3.3 -14.9,0 z m 18.3,0 0,-19.6 4,0 0,16.2 9.9,0 0,3.3 -13.9,0 z"
       style="fill:#414042"
       id="path8149" />
    <path
       id="path8153"
       style="clip-rule:evenodd;fill:#98d8d8;fill-opacity:1;fill-rule:evenodd"
       d="m -1115.8714,219.2122 c 48.8,0 88.3,39.5 88.3,88.19999 0,48.7 -39.5,88.2 -88.3,88.2 -48.7,0 -88.2,-39.5 -88.2,-88.2 0,-48.69999 39.5,-88.19999 88.2,-88.19999 l 0,0 z"
       class="st3"
       inkscape:connector-curvature="0"
       inkscape:export-filename="C:\Users\kli\Desktop\Graphics\Fun\Squad\icons\ice.png"
       inkscape:export-xdpi="90"
       inkscape:export-ydpi="90" />
    <path
       id="path8155"
       style="clip-rule:evenodd;fill:#6ac7c7;fill-opacity:1;fill-rule:evenodd"
       d="m -1115.8714,219.2122 c 48.8,0 88.3,39.5 88.3,88.19999 0,48.7 -39.5,88.2 -88.3,88.2 l 0,-176.39999 z"
       class="st0"
       inkscape:connector-curvature="0"
       inkscape:export-filename="C:\Users\kli\Desktop\Graphics\Fun\Squad\icons\ice.png"
       inkscape:export-xdpi="90"
       inkscape:export-ydpi="90" />
    <path
       id="path8157"
       style="clip-rule:evenodd;fill:#ffffff;fill-rule:evenodd"
       d="m -1116.0714,243.61219 0,0 c 2.9,0 5.3,2.4 5.3,5.4 l 0,5.30001 1.8,-1.80001 c 2.1,-2.1 5.6,-2.1 7.7,0 l 0,0 c 2,2.1 2,5.6 0,7.7 l -9.5,9.3 0,28.6 25.1,-14.5 3.4,-12.79999 c 0.8,-2.89999 3.8,-4.70001 6.6,-3.89999 l 0,0 c 2.9,0.79999 4.7,3.79999 3.9,6.69999 l -0.7,2.30001 4.7,-2.70001 c 2.6,-1.60001 5.9,-0.7 7.3,2 l 0,0 c 1.6,2.6 0.7,5.89999 -1.9,7.3 l -4.7,2.7 2.3,0.70001 c 2.9,0.79999 4.6,3.79999 3.8,6.6 l 0,0 c -0.8,2.9 -3.7,4.69999 -6.6,3.9 l -12.8,-3.4 -24.5,14.1 24,13.9 12.8,-3.4 c 2.9,-0.8 5.9,1 6.7,3.9 l 0,0 c 0.8,2.8 -1,5.8 -3.8,6.6 l -2.4,0.7 4.7,2.7 c 2.6,1.4 3.4,4.8 2,7.3 l 0,0 c -1.4,2.7 -4.8,3.6 -7.5,2 l -4.6,-2.7 0.6,2.3 c 0.8,2.9 -0.9,5.9 -3.8,6.7 l 0,0 c -2.9,0.8 -5.9,-1 -6.7,-3.9 l -3.3,-12.8 -24.8,-14.2 0,29 9.5,9.3 c 2,2.1 2,5.6 0,7.7 l 0,0 c -2.1,2.1 -5.6,2.1 -7.7,0 l -1.8,-1.8 0,5.3 c 0,3 -2.4,5.4 -5.3,5.4 l 0,0 c -3,0 -5.4,-2.4 -5.4,-5.4 l 0,-5.3 -1.8,1.8 c -2,2.1 -5.4,2.1 -7.6,0 l 0,0 c -2.1,-2.1 -2.1,-5.6 0,-7.7 l 9.3,-9.30001 0,-28.19999 -24.1,13.9 -3.3,12.79999 c -0.8,2.9 -3.8,4.60001 -6.7,3.80001 l 0,0 c -2.9,-0.80001 -4.6,-3.80001 -3.8,-6.6 l 0.6,-2.4 -4.7,2.8 c -2.6,1.39999 -5.9,0.6 -7.3,-2 l 0,0 c -1.4,-2.60001 -0.6,-5.9 2,-7.5 l 4.6,-2.7 -2.3,-0.6 c -2.8,-0.80001 -4.6,-3.80001 -3.8,-6.7 l 0,0 c 0.8,-2.9 3.8,-4.60001 6.7,-3.9 l 12.8,3.4 24.7,-14.2 -25.1,-14.5 -12.8,3.4 c -2.9,0.69999 -5.9,-1 -6.6,-3.9 l 0,0 c -0.8,-2.9 0.9,-5.9 3.8,-6.7 l 2.3,-0.6 -4.7,-2.7 c -2.6,-1.6 -3.4,-4.9 -1.9,-7.5 l 0,0 c 1.4,-2.6 4.8,-3.4 7.3,-2 l 4.7,2.7 -0.7,-2.3 c -0.8,-2.80001 1,-5.80001 3.8,-6.6 l 0,0 c 2.9,-0.80001 5.9,0.89999 6.7,3.79999 l 3.4,12.8 24.5,14.10001 0,-27.80001 -9.3,-9.3 c -2.1,-2.1 -2.1,-5.6 0,-7.7 l 0,0 c 2.1,-2.1 5.6,-2.1 7.6,0 l 1.8,1.80001 0,-5.30001 c 0,-2.8 2.5,-5.19999 5.5,-5.19999 l 0,0 z"
       class="st4"
       inkscape:connector-curvature="0"
       inkscape:export-filename="C:\Users\kli\Desktop\Graphics\Fun\Squad\icons\ice.png"
       inkscape:export-xdpi="90"
       inkscape:export-ydpi="90" />
    <path
       id="path8159"
       style="clip-rule:evenodd;fill:#d4eeee;fill-opacity:1;fill-rule:evenodd"
       d="m -1115.8714,243.61219 c 2.9,0.10001 5.1,2.60001 5.1,5.4 l 0,5.30001 1.8,-1.80001 c 2.1,-2.1 5.6,-2.1 7.7,0 l 0,0 c 2,2.1 2,5.6 0,7.7 l -9.5,9.3 0,28.6 25.1,-14.5 3.4,-12.79999 c 0.8,-2.89999 3.8,-4.70001 6.6,-3.89999 l 0,0 c 2.9,0.79999 4.7,3.79999 3.9,6.69999 l -0.7,2.30001 4.7,-2.70001 c 2.6,-1.60001 5.9,-0.7 7.3,2 l 0,0 c 1.6,2.6 0.7,5.89999 -1.9,7.3 l -4.7,2.7 2.3,0.70001 c 2.9,0.79999 4.6,3.79999 3.8,6.6 l 0,0 c -0.8,2.9 -3.7,4.69999 -6.6,3.9 l -12.8,-3.4 -24.5,14.1 24,13.9 12.8,-3.4 c 2.9,-0.8 5.9,1 6.7,3.9 l 0,0 c 0.8,2.8 -1,5.8 -3.8,6.6 l -2.4,0.7 4.7,2.7 c 2.6,1.4 3.4,4.8 2,7.3 l 0,0 c -1.4,2.7 -4.8,3.6 -7.5,2 l -4.6,-2.7 0.6,2.3 c 0.8,2.9 -0.9,5.9 -3.8,6.7 l 0,0 c -2.9,0.8 -5.9,-1 -6.7,-3.9 l -3.3,-12.8 -24.8,-14.2 0,29 9.5,9.3 c 2,2.1 2,5.6 0,7.7 l 0,0 c -2.1,2.1 -5.6,2.1 -7.7,0 l -1.8,-1.8 0,5.3 c 0,2.9 -2.2,5.3 -5.1,5.4 l 0,-127.5 z"
       class="st2"
       inkscape:connector-curvature="0"
       inkscape:export-filename="C:\Users\kli\Desktop\Graphics\Fun\Squad\icons\ice.png"
       inkscape:export-xdpi="90"
       inkscape:export-ydpi="90" />
    <path
       inkscape:connector-curvature="0"
       class="st5"
       d="m -1136.7714,445.11219 0,-19.7 4,0 0,19.7 -4,0 z m 20.3,-7.29999 3.9,1.20001 c -0.7,2.1 -1.7,3.79999 -3,4.79999 -1.3,1 -3.1,1.60001 -5.2,1.60001 -2.6,0 -4.8,-0.9 -6.5,-2.70001 -1.7,-1.79999 -2.4,-4.20001 -2.4,-7.29999 0,-3.20001 0.8,-5.8 2.4,-7.60001 1.8,-1.79999 4,-2.79999 6.7,-2.79999 2.4,0 4.3,0.79999 5.9,2.2 0.9,0.8 1.6,2 2,3.6 l -3.9,1 c -0.2,-1.1 -0.8,-1.9 -1.4,-2.4 -0.8,-0.6 -1.7,-0.9 -2.8,-0.9 -1.4,0 -2.6,0.6 -3.4,1.6 -1,1 -1.4,2.8 -1.4,5.1 0,2.4 0.4,4.2 1.3,5.2 0.9,1.1 2.1,1.7 3.6,1.7 1,0 1.9,-0.3 2.7,-1 0.6,-0.7 1.2,-1.8 1.5,-3.3 l 0,0 z m 7.3,7.29999 0,-19.7 14.6,0 0,3.3 -10.6,0 0,4.4 9.9,0 0,3.2 -9.9,0 0,5.3 11,0 0,3.3 -15,0 z"
       style="fill:#414042"
       id="path8161" />
    <path
       id="path8165"
       style="clip-rule:evenodd;fill:#f8d030;fill-opacity:1;fill-rule:evenodd"
       d="m -913.17143,219.2122 c 48.8,0 88.3,39.5 88.3,88.19999 0,48.7 -39.5,88.2 -88.3,88.2 -48.7,0 -88.19997,-39.5 -88.19997,-88.2 0,-48.69999 39.49997,-88.19999 88.19997,-88.19999 l 0,0 z"
       class="st10"
       inkscape:connector-curvature="0"
       inkscape:export-filename="C:\Users\kli\Desktop\Graphics\Fun\Squad\icons\electric.png"
       inkscape:export-xdpi="90"
       inkscape:export-ydpi="90" />
    <path
       id="path8167"
       style="clip-rule:evenodd;fill:#e0b508;fill-opacity:1;fill-rule:evenodd"
       d="m -913.17143,219.2122 c 48.8,0 88.3,39.5 88.3,88.19999 0,48.7 -39.5,88.2 -88.3,88.2 l 0,-176.39999 z"
       class="st25"
       inkscape:connector-curvature="0"
       inkscape:export-filename="C:\Users\kli\Desktop\Graphics\Fun\Squad\icons\electric.png"
       inkscape:export-xdpi="90"
       inkscape:export-ydpi="90" />
    <path
       id="path8169"
       style="clip-rule:evenodd;fill:#ffffff;fill-rule:evenodd"
       d="m -964.47143,333.4122 58.6,-90.6 c 3.9,-6.1 4.8,-6.89999 2.8,0.7 l -14.2,53.3 54.5,-18.70001 c 2.3,-0.89999 2.3,1.60001 1.2,3.30001 l -58.6,90.6 c -3.9,6.1 -4.8,6.9 -2.8,-0.7 l 14.2,-53.30001 -54.5,18.7 c -2.4,0.9 -2.4,-1.5 -1.2,-3.3 l 0,0 z"
       class="st4"
       inkscape:connector-curvature="0"
       inkscape:export-filename="C:\Users\kli\Desktop\Graphics\Fun\Squad\icons\electric.png"
       inkscape:export-xdpi="90"
       inkscape:export-ydpi="90" />
    <path
       id="path8171"
       style="clip-rule:evenodd;fill:#fadb60;fill-opacity:1;fill-rule:evenodd"
       d="m -913.17143,253.8122 7.2,-11 c 3.9,-6.1 4.8,-6.89999 2.8,0.7 l -10,37.3 0,-27 z m 0,41.5 50.3,-17.20001 c 2.3,-0.89999 2.3,1.60001 1.2,3.30001 l -51.5,79.6 0,-26.9 4.3,-16 -4.3,1.4 0,-24.2 z"
       class="st26"
       inkscape:connector-curvature="0"
       inkscape:export-filename="C:\Users\kli\Desktop\Graphics\Fun\Squad\icons\electric.png"
       inkscape:export-xdpi="90"
       inkscape:export-ydpi="90" />
    <path
       inkscape:connector-curvature="0"
       class="st5"
       d="m -979.07143,445.11219 0,-19.7 14.6,0 0,3.3 -10.6,0 0,4.4 9.9,0 0,3.2 -9.9,0 0,5.3 11,0 0,3.3 -15,0 z m 18.4,0 0,-19.5 4,0 0,16.10001 9.8,0 0,3.29999 -13.8,0 z m 16.7,0 0,-19.7 14.6,0 0,3.3 -10.7,0 0,4.4 9.9,0 0,3.2 -9.9,0 0,5.3 11,0 0,3.3 -14.9,0 z m 30.9,-7.29999 3.8,1.20001 c -0.6,2.1 -1.6,3.79999 -2.9,4.79999 -1.4,1 -3.1,1.60001 -5.2,1.60001 -2.7,0 -4.8,-0.9 -6.5,-2.70001 -1.7,-1.79999 -2.6,-4.20001 -2.6,-7.29999 0,-3.20001 0.9,-5.8 2.6,-7.60001 1.7,-1.79999 3.9,-2.79999 6.7,-2.79999 2.3,0 4.3,0.79999 5.9,2.2 0.9,0.8 1.6,2 2,3.6 l -4,1 c -0.2,-1.1 -0.7,-1.9 -1.4,-2.4 -0.7,-0.6 -1.6,-0.9 -2.7,-0.9 -1.4,0 -2.7,0.6 -3.6,1.6 -0.9,1 -1.3,2.8 -1.3,5.1 0,2.4 0.4,4.2 1.3,5.2 0.9,1.1 2,1.7 3.4,1.7 1.1,0 2,-0.3 2.8,-1 0.9,-0.7 1.4,-1.8 1.7,-3.3 l 0,0 z m 11.7,7.29999 0,-16.29999 -5.9,0 0,-3.29999 15.7,0 0,3.29999 -5.9,0 0,16.29999 -3.9,0 z m 12.4,0 0,-19.7 8.3,0 c 2.1,0 3.6,0.2 4.6,0.6 1,0.3 1.7,1 2.3,1.9 0.6,0.9 0.8,2 0.8,3.1 0,1.4 -0.4,2.70001 -1.2,3.70001 -0.9,0.89999 -2.2,1.6 -3.9,1.79999 0.8,0.6 1.6,1.1 2.1,1.70001 0.6,0.6 1.3,1.70001 2.2,3.20001 l 2.4,3.79999 -4.8,0 -2.9,-4.20001 c -1,-1.6 -1.7,-2.6 -2.1,-2.9 -0.3,-0.39999 -0.8,-0.7 -1.1,-0.89999 -0.4,-0.10001 -1.1,-0.20001 -2,-0.20001 l -0.9,0 0,8.20001 -3.8,0 z m 3.9,-11.39999 3,0 c 1.9,0 3.1,-0.10001 3.6,-0.20001 0.5,-0.1 0.8,-0.4 1.1,-0.79999 0.2,-0.4 0.4,-0.9 0.4,-1.60001 0,-0.7 -0.2,-1.1 -0.6,-1.6 -0.3,-0.4 -0.9,-0.7 -1.6,-0.79999 -0.3,0 -1.2,-0.10001 -2.9,-0.10001 l -3.1,0 0,5.10001 z m 15.7,11.39999 0,-19.7 4,0 0,19.7 -4,0 z m 20.4,-7.29999 3.8,1.20001 c -0.6,2.1 -1.6,3.79999 -2.9,4.79999 -1.4,1 -3.1,1.60001 -5.2,1.60001 -2.7,0 -4.8,-0.9 -6.5,-2.70001 -1.7,-1.79999 -2.6,-4.20001 -2.6,-7.29999 0,-3.20001 0.9,-5.8 2.6,-7.60001 1.7,-1.79999 3.9,-2.79999 6.7,-2.79999 2.4,0 4.3,0.79999 5.9,2.2 0.9,0.8 1.6,2 2,3.6 l -4,1 c -0.2,-1.1 -0.7,-1.9 -1.4,-2.4 -0.7,-0.6 -1.6,-0.9 -2.7,-0.9 -1.4,0 -2.7,0.6 -3.6,1.6 -0.9,1 -1.3,2.8 -1.3,5.1 0,2.4 0.4,4.2 1.3,5.2 0.9,1.1 2.1,1.7 3.4,1.7 1.1,0 2,-0.3 2.8,-1 0.8,-0.7 1.4,-1.8 1.7,-3.3 l 0,0 z"
       style="fill:#414042"
       id="path8173" />
    <path
       id="path8177"
       style="clip-rule:evenodd;fill:#7038f8;fill-opacity:1;fill-rule:evenodd"
       d="m -703.57143,219.2122 c 48.8,0 88.3,39.5 88.3,88.19999 0,48.7 -39.5,88.2 -88.3,88.2 -48.7,0 -88.2,-39.5 -88.2,-88.2 0,-48.69999 39.4,-88.19999 88.2,-88.19999 l 0,0 z"
       class="st11"
       inkscape:connector-curvature="0"
       inkscape:export-filename="C:\Users\kli\Desktop\Graphics\Fun\Squad\icons\dragon.png"
       inkscape:export-xdpi="90"
       inkscape:export-ydpi="90" />
    <path
       id="path8179"
       style="clip-rule:evenodd;fill:#4d09f4;fill-opacity:1;fill-rule:evenodd"
       d="m -703.57143,219.2122 c 48.8,0 88.3,39.5 88.3,88.19999 0,48.7 -39.5,88.2 -88.3,88.2 l 0,-176.39999 z"
       class="st12"
       inkscape:connector-curvature="0"
       inkscape:export-filename="C:\Users\kli\Desktop\Graphics\Fun\Squad\icons\dragon.png"
       inkscape:export-xdpi="90"
       inkscape:export-ydpi="90" />
    <path
       id="path8181"
       style="clip-rule:evenodd;fill:#edce56;fill-opacity:1;fill-rule:evenodd"
       d="m -723.87143,248.7122 c 45.2,-26.2 100.8,12.5 88,68.8 -13.7,59.6 -72.1,67.09999 -118,46.90001 -10.5,-4.60001 -10,-13.30001 -1.4,-20 45,-34.70001 49.4,-55.20001 52.3,-55.5 4,-0.4 -1.2,32.1 7.9,35 9.9,3 27.1,-15.5 26.7,-38.9 -0.3,-23.5 -24.4,-37.30001 -55.3,-32 -7.7,1.19999 -7.2,-0.30001 -0.2,-4.30001 l 0,0 z m 16.9,83.3 c -5.8,5.1 -5.2,4.89999 -16.3,15.1 -6.2,5.70001 -8.1,6.9 -6.9,7.20001 2.8,0.89999 26.4,0.2 21.8,-16.80001 -0.2,-0.8 1.7,-3.8 2.3,-5.3 0.6,-1.6 -0.2,-0.89999 -0.9,-0.2 l 0,0 z"
       class="st13"
       inkscape:connector-curvature="0"
       inkscape:export-filename="C:\Users\kli\Desktop\Graphics\Fun\Squad\icons\dragon.png"
       inkscape:export-xdpi="90"
       inkscape:export-ydpi="90" />
    <path
       id="path8183"
       style="clip-rule:evenodd;fill:#e1b817;fill-opacity:1;fill-rule:evenodd"
       d="m -703.57143,241.2122 c 39.8,-7 78.6,28.1 67.7,76.3 -8.9,38.7 -36.7,55.40001 -67.7,56.8 l 0,-85.20001 c 0.2,-0.1 0.4,-0.19999 0.6,-0.19999 4,-0.4 -1.2,32.1 7.9,35 9.9,3 27.1,-15.5 26.7,-38.9 -0.3,-18 -14.5,-30.39999 -35.1,-32.7 l 0,-11.1 z"
       class="st14"
       inkscape:connector-curvature="0"
       inkscape:export-filename="C:\Users\kli\Desktop\Graphics\Fun\Squad\icons\dragon.png"
       inkscape:export-xdpi="90"
       inkscape:export-ydpi="90" />
    <path
       inkscape:connector-curvature="0"
       class="st5"
       d="m -761.87143,425.41221 7.2,0 c 1.7,0 2.9,0.2 3.8,0.39999 1.1,0.29999 2.1,0.9 2.9,1.79999 0.9,0.9 1.4,1.9 1.9,3.20001 0.4,1.20001 0.7,2.79999 0.7,4.60001 0,1.7 -0.2,3.1 -0.6,4.2 -0.6,1.4 -1.2,2.6 -2.1,3.4 -0.8,0.7 -1.7,1.2 -2.8,1.6 -0.9,0.3 -2.1,0.4 -3.6,0.4 l -7.5,0 0,-19.6 z m 3.9,3.29999 0,13 3,0 c 1.1,0 1.9,0 2.4,-0.10001 0.6,-0.2 1.1,-0.39999 1.6,-0.89999 0.4,-0.29999 0.8,-1 1,-1.9 0.3,-0.89999 0.4,-2 0.4,-3.6 0,-1.60001 -0.1,-2.70001 -0.4,-3.60001 -0.2,-0.79999 -0.6,-1.39999 -1.1,-1.89999 -0.4,-0.4 -1.1,-0.79999 -1.8,-0.9 -0.6,-0.1 -1.7,-0.20001 -3.3,-0.20001 l -1.8,0 z m 15.9,16.39999 0,-19.7 8.3,0 c 2.1,0 3.7,0.2 4.7,0.6 0.9,0.3 1.7,1 2.2,1.9 0.6,0.9 0.9,2 0.9,3.1 0,1.4 -0.4,2.70001 -1.3,3.70001 -0.9,0.89999 -2.1,1.6 -3.9,1.79999 0.9,0.6 1.6,1.1 2.1,1.70001 0.6,0.6 1.3,1.70001 2.3,3.20001 l 2.3,3.79999 -4.7,0 -2.9,-4.20001 c -1,-1.6 -1.8,-2.6 -2.1,-2.9 -0.3,-0.39999 -0.8,-0.7 -1.2,-0.89999 -0.4,-0.10001 -1.1,-0.20001 -2,-0.20001 l -0.8,0 0,8.20001 -3.9,0 z m 4,-11.39999 2.9,0 c 2,0 3.1,-0.10001 3.7,-0.20001 0.4,-0.1 0.8,-0.4 1.1,-0.79999 0.2,-0.4 0.3,-0.9 0.3,-1.60001 0,-0.7 -0.1,-1.1 -0.6,-1.6 -0.3,-0.4 -0.8,-0.7 -1.4,-0.79999 -0.3,0 -1.3,-0.10001 -2.9,-0.10001 l -3.1,0 0,5.10001 z m 33.6,11.39999 -4.3,0 -1.7,-4.39999 -7.9,0 -1.7,4.39999 -4.1,0 7.6,-19.7 4.2,0 7.9,19.7 z m -7.4,-7.79999 -2.7,-7.20001 -2.7,7.20001 5.4,0 z m 18.6,0.5 0,-3.29999 8.6,0 0,7.9 c -0.8,0.79999 -2,1.39999 -3.6,2.1 -1.7,0.6 -3.2,0.9 -4.9,0.9 -2,0 -3.8,-0.4 -5.3,-1.20001 -1.6,-0.9 -2.7,-2.10001 -3.4,-3.79999 -0.8,-1.60001 -1.1,-3.3 -1.1,-5.20001 0,-2 0.4,-3.9 1.2,-5.4 0.9,-1.6 2.1,-2.79999 3.8,-3.70001 1.3,-0.7 2.9,-1 4.8,-1 2.3,0 4.3,0.60001 5.7,1.60001 1.3,1 2.2,2.39999 2.7,4.20001 l -4,0.79999 c -0.2,-1 -0.8,-1.79999 -1.6,-2.29999 -0.8,-0.60001 -1.7,-0.8 -2.8,-0.8 -1.8,0 -3.1,0.6 -4.2,1.7 -1,1.1 -1.4,2.7 -1.4,4.9 0,2.3 0.4,4 1.6,5.2 1,1.1 2.3,1.8 4,1.8 0.9,0 1.7,-0.2 2.6,-0.6 0.8,-0.3 1.6,-0.7 2.1,-1.1 l 0,-2.6 -4.8,0 z m 11.5,-2.39999 c 0,-2 0.2,-3.70001 0.9,-5 0.4,-1 1,-2 1.8,-2.8 0.8,-0.8 1.7,-1.3 2.6,-1.8 1.2,-0.4 2.7,-0.8 4.2,-0.8 2.9,0 5.2,0.9 7,2.8 1.7,1.8 2.6,4.2 2.6,7.5 0,3.2 -0.9,5.7 -2.6,7.5 -1.8,1.8 -4,2.7 -6.9,2.7 -3,0 -5.3,-0.9 -7,-2.7 -1.9,-1.8 -2.6,-4.3 -2.6,-7.4 l 0,0 z m 4,-0.10001 c 0,2.20001 0.6,3.9 1.6,5 1.1,1.20001 2.3,1.79999 4,1.79999 1.6,0 2.8,-0.6 3.9,-1.79999 1,-1.1 1.4,-2.79999 1.4,-5.1 0,-2.20001 -0.4,-3.9 -1.4,-5 -1,-1.10001 -2.3,-1.70001 -3.9,-1.70001 -1.7,0 -3,0.6 -4,1.70001 -1.1,1.1 -1.6,2.70001 -1.6,5.1 l 0,0 z m 18.1,9.79999 0,-19.7 3.9,0 8,13.1 0,-13.1 3.8,0 0,19.7 -4,0 -7.9,-12.79999 0,12.79999 -3.8,0 z"
       style="fill:#414042"
       id="path8185" />
    <path
       id="path8189"
       style="clip-rule:evenodd;fill:#705898;fill-opacity:1;fill-rule:evenodd"
       d="m -497.47143,219.2122 c 48.7,0 88.2,39.5 88.2,88.19999 0,48.7 -39.5,88.2 -88.2,88.2 -48.7,0 -88.3,-39.5 -88.3,-88.2 0,-48.69999 39.6,-88.19999 88.3,-88.19999 l 0,0 z"
       class="st21"
       inkscape:connector-curvature="0"
       inkscape:export-filename="C:\Users\kli\Desktop\Graphics\Fun\Squad\icons\ghost.png"
       inkscape:export-xdpi="90"
       inkscape:export-ydpi="90" />
    <path
       id="path8191"
       style="clip-rule:evenodd;fill:#564475;fill-opacity:1;fill-rule:evenodd"
       d="m -497.47143,219.2122 c 48.7,0 88.2,39.5 88.2,88.19999 0,48.7 -39.5,88.2 -88.2,88.2 l 0,-176.39999 z"
       class="st22"
       inkscape:connector-curvature="0"
       inkscape:export-filename="C:\Users\kli\Desktop\Graphics\Fun\Squad\icons\ghost.png"
       inkscape:export-xdpi="90"
       inkscape:export-ydpi="90" />
    <path
       id="path8193"
       style="clip-rule:evenodd;fill:#ffffff;fill-rule:evenodd"
       d="m -576.57143,310.7122 c -1.2,15.3 8.1,-15.2 29.8,-23.2 40.1,-14.8 47,26 60.9,41.3 34.7,37.7 73.8,-8.8 55.8,-50.39999 -29.1,-68 -140.1,-46 -146.5,32.29999 l 0,0 z m 145.5,21.5 c -0.6,3 0.2,4 1.8,4.3 2.9,0.6 4.4,0.89999 6.2,3.2 1.9,2.39999 4.2,1 4.1,-4 -0.2,-7.7 -10.2,-12.10001 -12.1,-3.5 l 0,0 z m -63.9,17.89999 c -0.1,3.8 3.8,2.7 6,2.4 1,0 1.9,0 2.6,0.8 2,2.3 4,-0.7 7.3,0.8 7.7,3.20001 4.8,-13.5 -5.2,-13.89999 -4.6,-0.2 -10.5,2.6 -10.7,9.89999 l 0,0 z m 36.8,-21.2 c -5.7,6.7 -16.8,2.7 -22.4,-2.19999 -5.6,-4.80001 -6.3,-13 -1.7,-18.5 5.9,-6.80001 29.9,14.1 24.1,20.69999 l 0,0 z m 13.7,-1.3 c 4.1,-0.39999 9.2,-6 10.5,-11.2 1.4,-5.89999 -1.7,-11.6 -6.9,-12.69999 -8.4,-1.5 -11.7,24.69999 -3.6,23.89999 l 0,0 z"
       class="st4"
       inkscape:connector-curvature="0"
       inkscape:export-filename="C:\Users\kli\Desktop\Graphics\Fun\Squad\icons\ghost.png"
       inkscape:export-xdpi="90"
       inkscape:export-ydpi="90" />
    <path
       id="path8195"
       style="clip-rule:evenodd;fill:#e5e6e7;fill-rule:evenodd"
       d="m -497.47143,310.61219 c 3.9,6.9 7.5,13.60001 11.6,18.10001 34.7,37.70001 73.8,-8.79999 55.8,-50.4 -12.5,-29 -39.7,-41.6 -67.4,-40.5 l 0,72.80001 z m 66.4,21.60001 c -0.6,3 0.2,4 1.8,4.3 2.9,0.60001 4.4,0.9 6.2,3.2 1.9,2.39999 4.2,1 4.1,-4 -0.2,-7.7 -10.2,-12.10001 -12.1,-3.5 l 0,0 z m -63.9,17.89999 c -0.1,3.80001 3.8,2.70001 6,2.4 1,0 1.9,0 2.6,0.80001 2,2.29999 4,-0.70001 7.3,0.79999 7.7,3.20001 4.8,-13.5 -5.2,-13.9 -4.6,-0.19999 -10.5,2.60001 -10.7,9.9 l 0,0 z m 36.8,-21.19999 c -5.7,6.69999 -16.8,2.69999 -22.4,-2.20001 -5.6,-4.79999 -6.3,-13 -1.7,-18.5 5.9,-6.79999 29.9,14.10001 24.1,20.70001 l 0,0 z m 13.7,-1.30001 c 4.1,-0.39999 9.2,-6 10.5,-11.19999 1.4,-5.9 -1.7,-11.6 -6.9,-12.70001 -8.4,-1.5 -11.7,24.70001 -3.6,23.9 l 0,0 z"
       class="st27"
       inkscape:connector-curvature="0"
       inkscape:export-filename="C:\Users\kli\Desktop\Graphics\Fun\Squad\icons\ghost.png"
       inkscape:export-xdpi="90"
       inkscape:export-ydpi="90" />
    <path
       inkscape:connector-curvature="0"
       class="st5"
       d="m -534.47143,437.8122 0,-3.29999 8.6,0 0,7.9 c -0.9,0.79999 -2,1.39999 -3.7,2.1 -1.6,0.6 -3.1,0.9 -4.8,0.9 -2,0 -3.8,-0.4 -5.3,-1.20001 -1.6,-0.9 -2.7,-2.10001 -3.4,-3.79999 -0.8,-1.60001 -1.1,-3.3 -1.1,-5.20001 0,-2 0.3,-3.9 1.2,-5.4 0.9,-1.5 2.1,-2.79999 3.8,-3.70001 1.2,-0.7 2.9,-1 4.7,-1 2.4,0 4.4,0.60001 5.8,1.60001 1.3,1 2.2,2.39999 2.7,4.20001 l -4,0.79999 c -0.2,-1 -0.8,-1.79999 -1.6,-2.29999 -0.8,-0.60001 -1.7,-0.8 -2.9,-0.8 -1.7,0 -3.1,0.6 -4.1,1.7 -1,1.1 -1.6,2.7 -1.6,4.9 0,2.3 0.6,4 1.6,5.2 1.1,1.1 2.4,1.8 4.1,1.8 0.9,0 1.7,-0.2 2.6,-0.6 0.8,-0.3 1.4,-0.7 2.1,-1.1 l 0,-2.6 -4.7,0 z m 12.2,7.29999 0,-19.7 4,0 0,7.8 7.8,0 0,-7.8 3.9,0 0,19.7 -3.9,0 0,-8.6 -7.8,0 0,8.6 -4,0 z m 19.1,-9.7 c 0,-2 0.3,-3.7 0.9,-5 0.4,-1 1.1,-2 1.8,-2.8 0.8,-0.79999 1.7,-1.29999 2.6,-1.79999 1.2,-0.39999 2.7,-0.79999 4.2,-0.79999 2.9,0 5.2,0.9 7,2.79999 1.8,1.79999 2.6,4.20001 2.6,7.5 0,3.20001 -0.8,5.70001 -2.6,7.5 -1.7,1.79999 -4,2.70001 -6.9,2.70001 -2.9,0 -5.2,-0.9 -7,-2.70001 -1.8,-1.79999 -2.6,-4.29999 -2.6,-7.39999 l 0,0 z m 4.1,-0.1 c 0,2.2 0.4,3.9 1.6,5 1,1.2 2.3,1.8 3.9,1.8 1.6,0 2.9,-0.6 3.9,-1.8 1,-1.1 1.4,-2.8 1.4,-5.1 0,-2.2 -0.4,-3.9 -1.4,-5 -1,-1.1 -2.2,-1.7 -3.9,-1.7 -1.7,0 -3,0.6 -4,1.7 -1.1,1.1 -1.5,2.7 -1.5,5.1 l 0,0 z m 17,3.4 3.9,-0.4 c 0.2,1.3 0.7,2.3 1.4,2.9 0.7,0.6 1.7,0.9 2.9,0.9 1.2,0 2.2,-0.2 2.8,-0.8 0.7,-0.6 1,-1.2 1,-1.9 0,-0.4 -0.1,-0.9 -0.3,-1.2 -0.3,-0.3 -0.8,-0.6 -1.4,-0.9 -0.4,-0.1 -1.6,-0.4 -3.2,-0.8 -2.1,-0.6 -3.6,-1.2 -4.4,-2 -1.2,-1 -1.8,-2.29999 -1.8,-3.9 0,-1 0.2,-2 0.8,-2.89999 0.6,-0.79999 1.4,-1.4 2.4,-1.9 1.1,-0.6 2.4,-0.79999 3.9,-0.79999 2.4,0 4.3,0.6 5.6,1.7 1.2,1.1 1.9,2.6 2,4.3 l -4,0.2 c -0.1,-1.1 -0.6,-1.8 -1.1,-2.2 -0.6,-0.4 -1.3,-0.70001 -2.4,-0.70001 -1.2,0 -2.1,0.20001 -2.8,0.70001 -0.3,0.29999 -0.6,0.79999 -0.6,1.2 0,0.4 0.1,0.9 0.6,1.2 0.6,0.4 1.7,0.9 3.7,1.3 1.9,0.4 3.3,0.9 4.2,1.4 1,0.4 1.7,1.1 2.2,2 0.6,0.8 0.8,1.9 0.8,3.1 0,1.1 -0.3,2.1 -0.9,3.1 -0.7,1 -1.6,1.8 -2.7,2.2 -1.2,0.4 -2.6,0.7 -4.3,0.7 -2.4,0 -4.3,-0.6 -5.7,-1.7 -1.5,-1 -2.3,-2.7 -2.6,-4.8 l 0,0 z m 23.8,6.4 0,-16.3 -5.9,0 0,-3.3 15.7,0 0,3.3 -5.9,0 0,16.3 -3.9,0 z"
       style="fill:#414042"
       id="path8197" />
    <path
       id="path8201"
       style="clip-rule:evenodd;fill:#f85888;fill-opacity:1;fill-rule:evenodd"
       d="m -279.37143,219.2122 c 48.7,0 88.2,39.5 88.2,88.19999 0,48.7 -39.5,88.2 -88.2,88.2 -48.8,0 -88.3,-39.5 -88.3,-88.2 0,-48.69999 39.5,-88.19999 88.3,-88.19999 l 0,0 z"
       class="st28"
       inkscape:connector-curvature="0"
       inkscape:export-filename="C:\Users\kli\Desktop\Graphics\Fun\Squad\icons\psychic.png"
       inkscape:export-xdpi="90"
       inkscape:export-ydpi="90" />
    <path
       id="path8203"
       style="clip-rule:evenodd;fill:#f50b51;fill-opacity:1;fill-rule:evenodd"
       d="m -279.37143,219.2122 c 48.7,0 88.2,39.5 88.2,88.19999 0,48.7 -39.5,88.2 -88.2,88.2 l 0,-176.39999 z"
       class="st29"
       inkscape:connector-curvature="0"
       inkscape:export-filename="C:\Users\kli\Desktop\Graphics\Fun\Squad\icons\psychic.png"
       inkscape:export-xdpi="90"
       inkscape:export-ydpi="90" />
    <path
       id="path8205"
       style="clip-rule:evenodd;fill:#fddce6;fill-opacity:1;fill-rule:evenodd"
       d="m -279.77143,258.7122 0.4,0 0.3,0 c 42.1,0 76.2,39.89999 76.2,48.69999 0,8.80001 -34,48.7 -76.2,48.7 l -0.3,0 -0.4,0 c -42.1,0 -76.2,-39.89999 -76.2,-48.7 0,-8.8 34,-48.69999 76.2,-48.69999 l 0,0 z m 0.4,27.3 c 11.8,0 21.4,9.6 21.4,21.39999 0,11.80001 -9.6,21.4 -21.4,21.4 -11.9,0 -21.4,-9.6 -21.4,-21.4 0,-11.8 9.5,-21.39999 21.4,-21.39999 l 0,0 z m -0.3,-14.8 0.3,0.1 0.2,-0.1 c 32.7,0 59.2,29.69999 59.2,36.1 0,6.4 -26.5,36.10001 -59.2,36.10001 l -0.2,-0.10001 -0.3,0.10001 c -32.7,0 -59.2,-29.70001 -59.2,-36.10001 0,-6.39999 26.5,-36.1 59.2,-36.1 l 0,0 z"
       class="st10"
       inkscape:connector-curvature="0"
       inkscape:export-filename="C:\Users\kli\Desktop\Graphics\Fun\Squad\icons\psychic.png"
       inkscape:export-xdpi="90"
       inkscape:export-ydpi="90" />
    <path
       id="path8207"
       style="clip-rule:evenodd;fill:#fcc4d5;fill-opacity:1;fill-rule:evenodd"
       d="m -279.37143,258.7122 0.3,0 c 42.1,0 76.2,39.89999 76.2,48.69999 0,8.80001 -34,48.7 -76.2,48.7 l -0.3,0 0,-12.7 0.2,0.10001 c 32.7,0 59.2,-29.7 59.2,-36.10001 0,-6.39999 -26.5,-36.1 -59.2,-36.1 l -0.2,0.1 0,-12.69999 z m 0,70 0,-42.7 c 11.8,0 21.4,9.6 21.4,21.39999 0,11.80001 -9.6,21.30001 -21.4,21.30001 l 0,0 z"
       class="st6"
       inkscape:connector-curvature="0"
       inkscape:export-filename="C:\Users\kli\Desktop\Graphics\Fun\Squad\icons\psychic.png"
       inkscape:export-xdpi="90"
       inkscape:export-ydpi="90" />
    <path
       inkscape:connector-curvature="0"
       class="st5"
       d="m -337.77143,445.11219 0,-19.7 6.3,0 c 2.4,0 4,0.1 4.7,0.3 1.2,0.3 2.1,0.9 2.9,1.9 0.8,1 1.1,2.3 1.1,3.9 0,1.2 -0.2,2.2 -0.7,3 -0.4,0.9 -1,1.4 -1.7,2 -0.7,0.4 -1.3,0.8 -2,0.9 -1,0.2 -2.3,0.3 -4.1,0.3 l -2.7,0 0,7.3 -3.8,0 z m 3.9,-16.39999 0,5.6 2.2,0 c 1.6,0 2.6,0 3.1,-0.20001 0.6,-0.2 1,-0.6 1.2,-1 0.3,-0.39999 0.4,-1 0.4,-1.6 0,-0.7 -0.1,-1.2 -0.6,-1.79999 -0.4,-0.4 -1,-0.70001 -1.7,-0.79999 -0.4,-0.10001 -1.3,-0.20001 -2.8,-0.20001 l -1.8,0 z m 13.4,10 3.9,-0.4 c 0.2,1.29999 0.7,2.29999 1.4,2.9 0.7,0.6 1.7,0.89999 2.9,0.89999 1.2,0 2.2,-0.2 2.9,-0.79999 0.7,-0.6 0.9,-1.20001 0.9,-1.89999 0,-0.4 -0.1,-0.9 -0.3,-1.20001 -0.3,-0.29999 -0.8,-0.60001 -1.4,-0.9 -0.4,-0.1 -1.6,-0.39999 -3.2,-0.79999 -2.1,-0.6 -3.6,-1.20001 -4.4,-2 -1.2,-1 -1.8,-2.3 -1.8,-3.9 0,-1 0.2,-2 0.8,-2.9 0.7,-0.8 1.4,-1.4 2.6,-1.9 1,-0.6 2.3,-0.8 3.8,-0.8 2.6,0 4.3,0.6 5.6,1.7 1.3,1.1 2,2.6 2,4.3 l -4,0.2 c -0.1,-1.1 -0.4,-1.8 -1,-2.2 -0.6,-0.4 -1.4,-0.7 -2.6,-0.7 -1.2,0 -2.1,0.2 -2.7,0.7 -0.4,0.3 -0.7,0.8 -0.7,1.2 0,0.4 0.2,0.9 0.6,1.2 0.6,0.4 1.8,0.9 3.7,1.3 1.9,0.4 3.3,0.9 4.3,1.4 0.9,0.4 1.6,1.1 2.1,2 0.6,0.8 0.8,1.9 0.8,3.1 0,1.1 -0.3,2.1 -0.9,3.1 -0.7,1 -1.6,1.8 -2.7,2.2 -1.1,0.4 -2.6,0.7 -4.3,0.7 -2.4,0 -4.3,-0.6 -5.7,-1.7 -1.5,-1 -2.3,-2.7 -2.6,-4.8 l 0,0 z m 24.6,6.39999 0,-8.2 -7.2,-11.5 4.7,0 4.6,7.8 4.6,-7.8 4.6,0 -7.2,11.5 0,8.2 -4.1,0 z m 25.6,-7.29999 3.9,1.20001 c -0.7,2.1 -1.7,3.79999 -3,4.79999 -1.3,1 -3.1,1.60001 -5.2,1.60001 -2.6,0 -4.8,-0.9 -6.5,-2.70001 -1.7,-1.79999 -2.4,-4.20001 -2.4,-7.29999 0,-3.20001 0.8,-5.8 2.4,-7.60001 1.8,-1.79999 4,-2.79999 6.7,-2.79999 2.4,0 4.4,0.79999 5.9,2.2 0.9,0.8 1.6,2 2,3.6 l -3.9,1 c -0.2,-1.1 -0.8,-1.9 -1.4,-2.4 -0.8,-0.6 -1.7,-0.9 -2.7,-0.9 -1.6,0 -2.7,0.6 -3.6,1.6 -0.9,1 -1.4,2.8 -1.4,5.1 0,2.4 0.4,4.2 1.3,5.2 1,1.1 2.1,1.7 3.6,1.7 1,0 1.9,-0.3 2.7,-1 0.8,-0.7 1.3,-1.8 1.6,-3.3 l 0,0 z m 7.3,7.29999 0,-19.7 4,0 0,7.8 7.8,0 0,-7.8 4,0 0,19.7 -4,0 0,-8.6 -7.8,0 0,8.6 -4,0 z m 19.7,0 0,-19.7 4,0 0,19.7 -4,0 z m 20.3,-7.29999 3.9,1.20001 c -0.6,2.1 -1.6,3.79999 -3,4.79999 -1.3,1 -3.1,1.60001 -5.2,1.60001 -2.6,0 -4.7,-0.9 -6.3,-2.70001 -1.8,-1.79999 -2.6,-4.20001 -2.6,-7.29999 0,-3.20001 0.9,-5.8 2.6,-7.60001 1.7,-1.79999 3.9,-2.79999 6.7,-2.79999 2.3,0 4.3,0.79999 5.8,2.2 0.9,0.8 1.6,2 2,3.6 l -3.9,1 c -0.2,-1.1 -0.7,-1.9 -1.4,-2.4 -0.8,-0.6 -1.7,-0.9 -2.7,-0.9 -1.4,0 -2.7,0.6 -3.6,1.6 -0.9,1 -1.3,2.8 -1.3,5.1 0,2.4 0.4,4.2 1.3,5.2 0.9,1.1 2,1.7 3.4,1.7 1.1,0 2,-0.3 2.8,-1 0.6,-0.7 1.2,-1.8 1.5,-3.3 l 0,0 z"
       style="fill:#414042"
       id="path8209" />
    <path
       id="path8213"
       style="clip-rule:evenodd;fill:#a8a878;fill-opacity:1;fill-rule:evenodd"
       d="m -61.371429,219.2122 c 48.7,0 88.3,39.5 88.3,88.19999 0,48.7 -39.6,88.2 -88.3,88.2 -48.700001,0 -88.200001,-39.5 -88.200001,-88.2 0,-48.69999 39.5,-88.19999 88.200001,-88.19999 l 0,0 z"
       class="st10"
       inkscape:connector-curvature="0"
       inkscape:export-filename="C:\Users\kli\Desktop\Graphics\Fun\Squad\icons\normal.png"
       inkscape:export-xdpi="90"
       inkscape:export-ydpi="90" />
    <path
       id="path8215"
       style="clip-rule:evenodd;fill:#8f8f5c;fill-opacity:1;fill-rule:evenodd"
       d="m -61.371429,219.2122 c 48.7,0 88.3,39.5 88.3,88.19999 0,48.7 -39.6,88.2 -88.3,88.2 l 0,-176.39999 z"
       class="st6"
       inkscape:connector-curvature="0"
       inkscape:export-filename="C:\Users\kli\Desktop\Graphics\Fun\Squad\icons\normal.png"
       inkscape:export-xdpi="90"
       inkscape:export-ydpi="90" />
    <path
       inkscape:connector-curvature="0"
       class="st5"
       d="m -118.87143,445.11219 0,-19.7 3.9,0 8,13.1 0,-13.1 3.7,0 0,19.7 -4,0 -7.9,-12.79999 0,12.79999 -3.7,0 z m 19.000001,-9.7 c 0,-2 0.2,-3.7 0.9,-5 0.4,-1 1,-2 1.8,-2.8 0.8,-0.79999 1.7,-1.29999 2.6,-1.79999 1.2,-0.39999 2.7,-0.79999 4.2,-0.79999 2.9,0 5.2,0.9 7,2.79999 1.7,1.79999 2.6,4.20001 2.6,7.5 0,3.20001 -0.9,5.70001 -2.6,7.5 -1.8,1.79999 -4,2.70001 -6.9,2.70001 -3,0 -5.3,-0.9 -7,-2.70001 -1.8,-1.79999 -2.6,-4.29999 -2.6,-7.39999 l 0,0 z m 4,-0.1 c 0,2.2 0.6,3.9 1.6,5 1.1,1.2 2.3,1.8 4,1.8 1.6,0 2.8,-0.6 3.9,-1.8 1,-1.1 1.4,-2.8 1.4,-5.1 0,-2.2 -0.4,-3.9 -1.4,-5 -1,-1.1 -2.3,-1.7 -3.9,-1.7 -1.7,0 -3,0.6 -4,1.7 -1,1.1 -1.6,2.7 -1.6,5.1 l 0,0 z m 18.1,9.8 0,-19.7 8.3,0 c 2.1,0 3.7,0.2 4.6,0.6 1,0.3 1.8,1 2.3,1.9 0.6,0.9 0.9,2 0.9,3.1 0,1.4 -0.4,2.7 -1.3,3.7 -0.9,0.9 -2.1,1.6 -3.9,1.8 0.9,0.6 1.6,1.1 2.1,1.7 0.6,0.6 1.3,1.7 2.2,3.2 l 2.4,3.8 -4.8,0 -2.8,-4.2 c -1.1,-1.6 -1.8,-2.6 -2.1,-2.9 -0.4,-0.4 -0.8,-0.7 -1.2,-0.9 -0.4,-0.1 -1.1,-0.2 -2,-0.2 l -0.8,0 0,8.2 -3.9,0 z m 4,-11.4 2.9,0 c 1.9,0 3.1,-0.1 3.6,-0.2 0.6,-0.1 0.9,-0.4 1.1,-0.8 0.3,-0.4 0.4,-0.9 0.4,-1.6 0,-0.7 -0.2,-1.1 -0.6,-1.6 -0.3,-0.4 -0.8,-0.7 -1.4,-0.8 -0.3,0 -1.3,-0.1 -2.9,-0.1 l -3.1,0 0,5.1 z m 15.8,11.4 0,-19.7 5.9,0 3.6,13.5 3.6,-13.5 6,0 0,19.7 -3.8,0 0,-15.5 -3.9,15.5 -3.8,0 -3.9,-15.5 0,15.5 -3.7,0 z m 40.6,0 -4.2,0 -1.8,-4.4 -7.9,0 -1.6,4.4 -4.2,0 7.7,-19.7 4.2,0 7.8,19.7 z m -7.2,-7.8 -2.8,-7.2 -2.7,7.2 5.5,0 z m 9.5,7.8 0,-19.5 4,0 0,16.1 9.9000004,0 0,3.3 -13.9000004,0 z"
       style="fill:#414042"
       id="path8221" />
    <path
       id="path8225"
       style="clip-rule:evenodd;fill:#c03028;fill-opacity:1;fill-rule:evenodd"
       d="m -1115.8714,504.61219 c 48.8,0 88.3,39.5 88.3,88.3 0,48.7 -39.5,88.2 -88.3,88.2 -48.7,0 -88.2,-39.5 -88.2,-88.2 0,-48.9 39.5,-88.3 88.2,-88.3 l 0,0 z"
       class="st8"
       inkscape:connector-curvature="0"
       inkscape:export-filename="C:\Users\kli\Desktop\Graphics\Fun\Squad\icons\fighting.png"
       inkscape:export-xdpi="90"
       inkscape:export-ydpi="90" />
    <path
       id="path8227"
       style="clip-rule:evenodd;fill:#9d2721;fill-opacity:1;fill-rule:evenodd"
       d="m -1115.8714,504.61219 c 48.8,0 88.3,39.5 88.3,88.3 0,48.7 -39.5,88.2 -88.3,88.2 l 0,-176.5 z"
       class="st9"
       inkscape:connector-curvature="0"
       inkscape:export-filename="C:\Users\kli\Desktop\Graphics\Fun\Squad\icons\fighting.png"
       inkscape:export-xdpi="90"
       inkscape:export-ydpi="90" />
    <path
       id="path8229"
       style="clip-rule:evenodd;fill:#e4c3b0;fill-opacity:1;fill-rule:evenodd"
       d="m -1153.1714,537.41221 0,0 c 5.8,0 10.6,4.79999 10.6,10.7 l 0,21 c 0,5.8 -4.8,10.6 -10.6,10.6 l 0,0 c -5.9,0 -10.7,-4.8 -10.7,-10.6 l 0,-21 c 0.1,-5.9 4.8,-10.7 10.7,-10.7 l 0,0 z m 53.3,93.6 c 4.8,0 8.7,3.9 8.7,8.7 l 0,7 c 0,4.8 -4,8.8 -8.7,8.8 l -29.6,0 c -4.8,0 -8.7,-4 -8.7,-8.8 l 0,-7 c 0,-4.8 3.9,-8.7 8.7,-8.7 l 29.6,0 z m 23.3,-46.70001 c 4.8,0 8.8,3.9 8.8,8.70001 l 0,24.79999 c 0,4.79999 -4,8.79999 -8.8,8.79999 -13.8,0 -27.7,0 -41.5,0 -4.6,0 -8.2,-3.79999 -8.2,-8.29999 0,-4.39999 3.7,-8.20001 8.2,-8.20001 l 10.5,0 0,-17 c 0,-4.79999 3.9,-8.7 8.7,-8.7 l 22.3,0 z m -78.5,0 c -4.8,0 -8.8,3.9 -8.8,8.70001 l 0,24.79999 c 0,4.79999 4,8.79999 8.8,8.79999 l 15.5,0 c 4.8,0 8.7,-4 8.7,-8.79999 l 0,-12.20001 8.2,0 c 5.9,0 10.7,-4.79999 10.7,-10.7 0,-5.8 -4.8,-10.6 -10.7,-10.6 -10.8,0 -21.6,0 -32.4,0 l 0,0 z m 77.8,-42.29999 0,0 c 5.1,0 9.5,4.2 9.5,9.5 l 0,18.7 c 0,5.2 -4.3,9.5 -9.5,9.5 l 0,0 c -5.2,0 -9.5,-4.2 -9.5,-9.5 l 0,-18.7 c 0,-5.20001 4.3,-9.5 9.5,-9.5 l 0,0 z m -50.2,-11.70001 0,0 c 5.8,0 10.6,4.79999 10.6,10.60001 l 0,28.2 c 0,5.8 -4.8,10.6 -10.6,10.6 l 0,0 c -5.9,0 -10.7,-4.8 -10.7,-10.6 l 0,-28.2 c 0.1,-5.9 4.8,-10.60001 10.7,-10.60001 l 0,0 z m 25.6,7.10001 0,0 c 5.9,0 10.7,4.79999 10.7,10.7 l 0,21 c 0,5.8 -4.8,10.6 -10.7,10.6 l 0,0 c -5.8,0 -10.6,-4.8 -10.6,-10.6 l 0,-21 c 0,-5.9 4.8,-10.7 10.6,-10.7 l 0,0 z"
       class="st13"
       inkscape:connector-curvature="0"
       inkscape:export-filename="C:\Users\kli\Desktop\Graphics\Fun\Squad\icons\fighting.png"
       inkscape:export-xdpi="90"
       inkscape:export-ydpi="90" />
    <path
       id="path8231"
       style="clip-rule:evenodd;fill:#d6a489;fill-opacity:1;fill-rule:evenodd"
       d="m -1115.8714,655.41221 0,-24.4 16,0 c 4.8,0 8.7,3.9 8.7,8.7 l 0,7 c 0,4.8 -4,8.7 -8.7,8.7 l -16,0 z m 0,-28.8 0,-16.6 8.3,0 0,-17 c 0,-4.8 3.9,-8.70001 8.7,-8.70001 l 22.3,0 c 4.8,0 8.8,3.9 8.8,8.70001 l 0,24.79999 c 0,4.79999 -4,8.79999 -8.8,8.79999 l -39.3,0 z m 0,-23.5 0,-16.3 c 2.3,2 3.9,4.9 3.9,8.1 0,3.3 -1.6,6.2 -3.9,8.2 l 0,0 z m 38.6,-61.1 0,0 c 5.1,0 9.5,4.2 9.5,9.5 l 0,18.7 c 0,5.2 -4.3,9.5 -9.5,9.5 l 0,0 c -5.2,0 -9.5,-4.2 -9.5,-9.5 l 0,-18.7 c 0,-5.20001 4.3,-9.5 9.5,-9.5 l 0,0 z m -24.6,-4.6 0,0 c 5.9,0 10.7,4.79999 10.7,10.7 l 0,21 c 0,5.8 -4.8,10.6 -10.7,10.6 l 0,0 c -5.8,0 -10.6,-4.8 -10.6,-10.6 l 0,-21 c 0,-5.9 4.8,-10.7 10.6,-10.7 l 0,0 z"
       class="st14"
       inkscape:connector-curvature="0"
       inkscape:export-filename="C:\Users\kli\Desktop\Graphics\Fun\Squad\icons\fighting.png"
       inkscape:export-xdpi="90"
       inkscape:export-ydpi="90" />
    <path
       inkscape:connector-curvature="0"
       class="st5"
       d="m -1179.3714,730.5122 0,-19.7 13.6,0 0,3.29999 -9.6,0 0,4.70001 8.2,0 0,3.29999 -8.2,0 0,8.3 -4,0 z m 16.7,0 0,-19.7 4,0 0,19.7 -4,0 z m 16.9,-7.2 0,-3.3 8.6,0 0,7.8 c -0.9,0.89999 -2,1.6 -3.7,2.1 -1.6,0.7 -3.1,1 -4.8,1 -2,0 -3.8,-0.4 -5.3,-1.3 -1.6,-0.9 -2.7,-2.1 -3.4,-3.7 -0.8,-1.70001 -1.1,-3.3 -1.1,-5.20001 0,-2.1 0.3,-3.89999 1.2,-5.39999 0.9,-1.70001 2.1,-2.9 3.8,-3.70001 1.2,-0.7 2.8,-1 4.7,-1 2.4,0 4.3,0.6 5.8,1.6 1.3,1 2.2,2.4 2.7,4.20001 l -4,0.79999 c -0.2,-1 -0.8,-1.79999 -1.6,-2.29999 -0.8,-0.6 -1.7,-0.9 -2.9,-0.9 -1.7,0 -3.1,0.6 -4.1,1.7 -1,1.1 -1.6,2.8 -1.6,4.9 0,2.3 0.6,4.1 1.6,5.3 1.1,1.1 2.4,1.7 4.1,1.7 0.8,0 1.7,-0.1 2.4,-0.4 0.9,-0.29999 1.6,-0.79999 2.2,-1.2 l 0,-2.7 -4.6,0 z m 12.2,7.2 0,-19.7 4,0 0,7.79999 7.8,0 0,-7.79999 3.9,0 0,19.7 -3.9,0 0,-8.7 -7.8,0 0,8.7 -4,0 z m 24.3,0 0,-16.3 -5.9,0 0,-3.29999 15.6,0 0,3.29999 -5.8,0 0,16.3 -3.9,0 z m 12.2,0 0,-19.7 4,0 0,19.7 -4,0 z m 7.8,0 0,-19.7 3.9,0 8,13.1 0,-13.1 3.7,0 0,19.7 -4,0 -7.9,-12.9 0,12.9 -3.7,0 z m 28.9,-7.2 0,-3.3 8.6,0 0,7.8 c -0.8,0.89999 -2,1.6 -3.6,2.1 -1.7,0.7 -3.2,1 -4.9,1 -2,0 -3.8,-0.4 -5.3,-1.3 -1.6,-0.9 -2.7,-2.1 -3.4,-3.7 -0.8,-1.70001 -1.1,-3.3 -1.1,-5.20001 0,-2.1 0.4,-3.89999 1.2,-5.39999 0.9,-1.70001 2.1,-2.9 3.8,-3.70001 1.3,-0.7 2.9,-1 4.7,-1 2.4,0 4.4,0.6 5.8,1.6 1.3,1 2.2,2.4 2.7,4.20001 l -4,0.79999 c -0.2,-1 -0.8,-1.79999 -1.6,-2.29999 -0.8,-0.6 -1.7,-0.9 -2.9,-0.9 -1.7,0 -3,0.6 -4.1,1.7 -1,1.1 -1.4,2.8 -1.4,4.9 0,2.3 0.4,4.1 1.4,5.3 1.1,1.1 2.4,1.7 4.1,1.7 0.9,0 1.7,-0.1 2.6,-0.4 0.8,-0.29999 1.6,-0.79999 2.1,-1.2 l 0,-2.7 -4.7,0 z"
       style="fill:#414042"
       id="path8233" />
    <path
       id="path8237"
       style="clip-rule:evenodd;fill:#a040a0;fill-opacity:1;fill-rule:evenodd"
       d="m -913.17143,504.61219 c 48.8,0 88.3,39.5 88.3,88.3 0,48.7 -39.5,88.2 -88.3,88.2 -48.7,0 -88.19997,-39.5 -88.19997,-88.2 0,-48.9 39.49997,-88.3 88.19997,-88.3 l 0,0 z"
       class="st8"
       inkscape:connector-curvature="0"
       inkscape:export-filename="C:\Users\kli\Desktop\Graphics\Fun\Squad\icons\poison.png"
       inkscape:export-xdpi="90"
       inkscape:export-ydpi="90" />
    <path
       id="path8239"
       style="clip-rule:evenodd;fill:#813481;fill-opacity:1;fill-rule:evenodd"
       d="m -913.17143,504.61219 c 48.8,0 88.3,39.5 88.3,88.3 0,48.7 -39.5,88.2 -88.3,88.2 l 0,-176.5 z"
       class="st9"
       inkscape:connector-curvature="0"
       inkscape:export-filename="C:\Users\kli\Desktop\Graphics\Fun\Squad\icons\poison.png"
       inkscape:export-xdpi="90"
       inkscape:export-ydpi="90" />
    <path
       id="path8241"
       style="clip-rule:evenodd;fill:#ffffff;fill-rule:evenodd"
       d="m -913.17143,532.61219 c 21.4,0 38.6,17.3 38.6,38.60001 0,12.5 -5.9,23.6 -15.1,30.6 -5.7,21.60001 -41.1,21.60001 -46.9,0 -9.1,-7 -15,-18.1 -15,-30.6 0,-21.29999 17.2,-38.60001 38.4,-38.60001 l 0,0 z m 54.9,87 0,0 c 0.8,2.9 -1,6 -3.9,6.8 l -29.5,7.9 29.5,7.9 c 2.9,0.8 4.7,3.8 3.9,6.8 l 0,0 c -0.8,2.9 -3.9,4.7 -6.8,3.9 l -48,-12.9 -47.9,12.9 c -3,0.8 -6,-1 -6.8,-3.9 l 0,0 c -0.8,-3 1,-6 3.9,-6.8 l 29.5,-7.9 -29.5,-7.9 c -2.9,-0.8 -4.7,-3.9 -3.9,-6.8 l 0,0 c 0.8,-3 3.8,-4.79999 6.8,-3.89999 l 47.9,12.79999 48,-12.79999 c 2.9,-0.9 6,0.89999 6.8,3.89999 l 0,0 z m -68.8,-63.7 c 4.4,0 8.1,6.3 8.1,14 0,7.8 -3.7,14 -8.1,14 -4.6,0 -8.1,-6.2 -8.1,-14 0,-7.6 3.6,-14 8.1,-14 l 0,0 z m 27.9,0 c 4.6,0 8.1,6.3 8.1,14 0,7.8 -3.6,14 -8.1,14 -4.4,0 -8.1,-6.2 -8.1,-14 0,-7.6 3.7,-14 8.1,-14 l 0,0 z m -18.3,32.5 c 0.9,0 1.7,1.2 1.7,2.8 0,1.6 -0.8,2.9 -1.7,2.9 -0.9,0 -1.7,-1.3 -1.7,-2.9 0,-1.6 0.8,-2.8 1.7,-2.8 l 0,0 z m 8.8,0 c 0.9,0 1.7,1.2 1.7,2.8 0,1.6 -0.8,2.9 -1.7,2.9 -1,0 -1.7,-1.3 -1.7,-2.9 0,-1.6 0.7,-2.8 1.7,-2.8 l 0,0 z"
       class="st4"
       inkscape:connector-curvature="0"
       inkscape:export-filename="C:\Users\kli\Desktop\Graphics\Fun\Squad\icons\poison.png"
       inkscape:export-xdpi="90"
       inkscape:export-ydpi="90" />
    <path
       id="path8243"
       style="clip-rule:evenodd;fill:#e5e6e7;fill-rule:evenodd"
       d="m -913.17143,532.61219 c 21.4,0 38.6,17.3 38.6,38.60001 0,12.5 -5.9,23.6 -15.1,30.6 -2.8,10.79999 -13.1,16.10001 -23.5,16.10001 l 0,-85.3 z m 0,107.3 0,-11.5 48,-12.8 c 2.9,-0.89999 6,0.9 6.8,3.9 l 0,0 c 0.8,2.9 -1,6 -3.9,6.8 l -29.5,7.9 29.5,7.9 c 2.9,0.8 4.7,3.8 3.9,6.8 l 0,0 c -0.8,2.9 -3.9,4.7 -6.8,3.9 l -48,-12.9 z m 14,-84 c 4.6,0 8.1,6.3 8.1,14 0,7.8 -3.6,14 -8.1,14 -4.4,0 -8.1,-6.2 -8.1,-14 0,-7.6 3.7,-14 8.1,-14 l 0,0 z m -9.5,32.5 c 0.9,0 1.7,1.2 1.7,2.8 0,1.6 -0.8,2.9 -1.7,2.9 -1,0 -1.7,-1.3 -1.7,-2.9 0,-1.6 0.7,-2.8 1.7,-2.8 l 0,0 z"
       class="st27"
       inkscape:connector-curvature="0"
       inkscape:export-filename="C:\Users\kli\Desktop\Graphics\Fun\Squad\icons\poison.png"
       inkscape:export-xdpi="90"
       inkscape:export-ydpi="90" />
    <path
       inkscape:connector-curvature="0"
       class="st5"
       d="m -963.87143,730.5122 0,-19.7 6.5,0 c 2.3,0 3.9,0.1 4.7,0.29999 1.1,0.20001 2.1,0.9 2.8,1.9 0.8,1 1.2,2.2 1.2,3.8 0,1.2 -0.2,2.2 -0.7,3.1 -0.4,0.8 -1,1.4 -1.7,1.9 -0.7,0.4 -1.3,0.8 -2.1,0.9 -0.9,0.2 -2.3,0.3 -4.1,0.3 l -2.6,0 0,7.5 -4,0 z m 4,-16.3 0,5.6 2.1,0 c 1.7,0 2.7,-0.1 3.2,-0.29999 0.4,-0.20001 0.9,-0.4 1.2,-0.9 0.3,-0.4 0.4,-1 0.4,-1.6 0,-0.8 -0.2,-1.3 -0.7,-1.8 -0.4,-0.4 -0.9,-0.8 -1.6,-0.9 -0.4,-0.1 -1.4,-0.1 -2.9,-0.1 l -1.7,0 z m 13.6,6.6 c 0,-2 0.2,-3.7 0.9,-5 0.4,-1 1,-1.89999 1.8,-2.7 0.8,-0.8 1.7,-1.4 2.6,-1.8 1.2,-0.6 2.7,-0.79999 4.2,-0.79999 2.9,0 5.2,0.9 7,2.7 1.7,1.8 2.6,4.3 2.6,7.6 0,3.1 -0.9,5.6 -2.6,7.5 -1.8,1.8 -4,2.7 -6.9,2.7 -3,0 -5.2,-0.9 -7,-2.7 -1.8,-1.9 -2.6,-4.3 -2.6,-7.5 l 0,0 z m 4.1,-0.2 c 0,2.2 0.4,3.9 1.4,5.1 1.1,1.1 2.3,1.70001 4,1.70001 1.6,0 2.8,-0.60001 3.9,-1.70001 1,-1.1 1.4,-2.9 1.4,-5.1 0,-2.3 -0.4,-4 -1.4,-5.1 -1,-1.1 -2.3,-1.7 -3.9,-1.7 -1.7,0 -3,0.7 -4,1.79999 -0.9,1.20001 -1.4,2.8 -1.4,5 l 0,0 z m 17.9,9.9 0,-19.7 4,0 0,19.7 -4,0 z m 6.8,-6.4 3.8,-0.3 c 0.2,1.3 0.8,2.20001 1.4,2.9 0.7,0.6 1.7,0.9 2.9,0.9 1.2,0 2.2,-0.3 2.9,-0.9 0.7,-0.4 1,-1.1 1,-1.9 0,-0.39999 -0.2,-0.79999 -0.4,-1.1 -0.2,-0.29999 -0.8,-0.7 -1.4,-0.9 -0.4,-0.1 -1.6,-0.39999 -3.1,-0.89999 -2.2,-0.4 -3.7,-1.10001 -4.6,-1.9 -1.2,-1.1 -1.8,-2.4 -1.8,-4 0,-1 0.3,-1.9 0.9,-2.8 0.6,-0.9 1.3,-1.6 2.4,-2 1,-0.4 2.3,-0.7 3.9,-0.7 2.4,0 4.2,0.6 5.6,1.7 1.2,1 1.9,2.4 1.9,4.2 l -3.9,0.2 c -0.2,-1 -0.6,-1.8 -1.1,-2.2 -0.6,-0.4 -1.4,-0.6 -2.6,-0.6 -1.1,0 -2,0.2 -2.7,0.7 -0.4,0.3 -0.7,0.7 -0.7,1.2 0,0.4 0.2,0.9 0.6,1.2 0.6,0.3 1.8,0.8 3.7,1.2 2,0.4 3.3,1 4.3,1.4 0.9,0.6 1.7,1.1 2.1,2 0.6,0.9 0.8,1.9 0.8,3.1 0,1.1 -0.2,2.2 -0.9,3.2 -0.7,1 -1.6,1.7 -2.7,2.1 -1.1,0.6 -2.6,0.8 -4.2,0.8 -2.6,0 -4.4,-0.6 -5.8,-1.8 -1.3,-0.9 -2.1,-2.6 -2.3,-4.8 l 0,0 z m 18.5,-3.3 c 0,-2 0.3,-3.7 0.9,-5 0.4,-1 1.1,-1.89999 1.9,-2.7 0.8,-0.8 1.6,-1.4 2.6,-1.8 1.2,-0.6 2.6,-0.79999 4.2,-0.79999 2.9,0 5.2,0.9 6.9,2.7 1.8,1.8 2.7,4.3 2.7,7.6 0,3.1 -0.9,5.6 -2.7,7.5 -1.7,1.8 -4,2.7 -6.9,2.7 -2.9,0 -5.2,-0.9 -7,-2.7 -1.8,-1.9 -2.6,-4.3 -2.6,-7.5 l 0,0 z m 4.1,-0.2 c 0,2.2 0.6,3.9 1.6,5.1 1,1.1 2.3,1.70001 3.9,1.70001 1.6,0 2.9,-0.60001 3.9,-1.70001 1,-1.1 1.6,-2.9 1.6,-5.1 0,-2.3 -0.6,-4 -1.6,-5.1 -0.9,-1.1 -2.2,-1.7 -3.9,-1.7 -1.7,0 -3,0.7 -4,1.79999 -1.1,1.20001 -1.5,2.8 -1.5,5 l 0,0 z m 18.1,9.9 0,-19.7 3.9,0 8,13.1 0,-13.1 3.7,0 0,19.7 -4,0 -7.9,-12.9 0,12.9 -3.7,0 z"
       style="fill:#414042"
       id="path8245" />
    <path
       id="path8249"
       style="clip-rule:evenodd;fill:#a8b820;fill-opacity:1;fill-rule:evenodd"
       d="m -703.57143,504.61219 c 48.8,0 88.3,39.5 88.3,88.3 0,48.7 -39.5,88.2 -88.3,88.2 -48.7,0 -88.2,-39.5 -88.2,-88.2 0,-48.9 39.4,-88.3 88.2,-88.3 l 0,0 z"
       class="st11"
       inkscape:connector-curvature="0"
       inkscape:export-filename="C:\Users\kli\Desktop\Graphics\Fun\Squad\icons\bug.png"
       inkscape:export-xdpi="90"
       inkscape:export-ydpi="90" />
    <path
       id="path8251"
       style="clip-rule:evenodd;fill:#94a21c;fill-opacity:1;fill-rule:evenodd"
       d="m -703.57143,504.61219 c 48.8,0 88.3,39.5 88.3,88.3 0,48.7 -39.5,88.2 -88.3,88.2 l 0,-176.5 z"
       class="st12"
       inkscape:connector-curvature="0"
       inkscape:export-filename="C:\Users\kli\Desktop\Graphics\Fun\Squad\icons\bug.png"
       inkscape:export-xdpi="90"
       inkscape:export-ydpi="90" />
    <path
       id="path8253"
       style="clip-rule:evenodd;fill:#e8e85f;fill-rule:evenodd"
       d="m -686.27143,566.5122 c 2.3,1.1 4.6,2.4 6.6,4 l 0,0 5.9,-5.9 0,0 c 1.3,-1.3 3.6,-1.3 4.9,0 l 0,0 5.9,5.9 c 1.3,1.3 1.3,3.6 0,4.9 l 0,0 c -1.3,1.29999 -3.4,1.29999 -4.8,0 l -3.6,-3.6 -3.6,3.39999 c 3.9,4.8 6.6,11 7.5,18.60001 l 1,-1 0,0 c 1.3,-1.3 3.4,-1.3 4.8,0 l 0,0 6,5.89999 c 1.3,1.3 1.3,3.4 0,4.8 l 0,0 c -1.3,1.3 -3.6,1.3 -4.8,0 l -3.6,-3.4 -3.2,3.1 c -0.3,6.10001 -1.7,11.9 -3.8,17 l 4.2,0.10001 0,0 c 1.9,0 3.4,1.6 3.4,3.29999 l 0,0 -0.1,8.5 c 0,1.9 -1.6,3.3 -3.4,3.3 l 0,0 c -1.8,0 -3.3,-1.6 -3.3,-3.3 l 0,-5 -4.1,-0.1 c -6.7,11 -17.2,18.1 -29.2,18.1 -11.9,0 -22.5,-7.1 -29.1,-18.1 l -4.1,0.1 0,5 c 0,1.8 -1.6,3.3 -3.3,3.3 l 0,0 c -1.9,0 -3.4,-1.4 -3.4,-3.3 l -0.1,-8.5 0,0 c 0,-1.79999 1.6,-3.29999 3.4,-3.29999 l 0,0 4.2,-0.10001 c -2.1,-5.1 -3.4,-10.89999 -3.8,-17 l -3.2,-3.1 -3.6,3.4 c -1.2,1.3 -3.4,1.3 -4.8,0 l 0,0 c -1.3,-1.3 -1.3,-3.4 0,-4.8 l 6,-5.89999 0,0 c 1.3,-1.3 3.4,-1.3 4.8,0 l 0,0 1,1 c 0.9,-7.60001 3.6,-13.8 7.5,-18.60001 l -3.6,-3.39999 -3.6,3.6 c -1.3,1.29999 -3.4,1.29999 -4.8,0 l 0,0 c -1.3,-1.3 -1.3,-3.6 0,-4.9 l 5.9,-5.9 0,0 c 1.3,-1.3 3.6,-1.3 4.8,0 l 0,0 6,5.9 0,0 c 2,-1.6 4.2,-2.9 6.6,-4 -0.1,-0.6 -0.2,-1.2 -0.2,-1.9 0,-5.9 3,-12.8 8.6,-16.3 l -2.9,-2.89999 -2.1,2.1 c -0.8,0.79999 -2,0.79999 -2.8,0 l 0,0 c -0.9,-0.8 -0.9,-2.1 0,-2.9 l 3.4,-3.4 0,0 c 0.8,-0.8 2.1,-0.8 2.9,0 l 0,0 5.3,5.3 c 1.6,-0.6 3.2,-0.8 5,-0.8 1.9,0 3.6,0.2 5.1,0.8 l 5.3,-5.3 0,0 c 0.8,-0.8 2.1,-0.8 2.9,0 l 0,0 3.4,3.4 c 0.9,0.8 0.9,2.1 0,2.9 l 0,0 c -0.8,0.79999 -2,0.79999 -2.8,0 l -2.1,-2.1 -2.8,2.89999 c 5.6,3.60001 8.6,10.5 8.6,16.3 -0.1,0.7 -0.2,1.4 -0.3,1.9 l 0,0 z"
       class="st13"
       inkscape:connector-curvature="0"
       inkscape:export-filename="C:\Users\kli\Desktop\Graphics\Fun\Squad\icons\bug.png"
       inkscape:export-xdpi="90"
       inkscape:export-ydpi="90" />
    <path
       id="path8255"
       style="clip-rule:evenodd;fill:#d9d91f;fill-opacity:1;fill-rule:evenodd"
       d="m -686.27143,566.5122 c 2.3,1.1 4.6,2.4 6.6,4 l 0,0 5.9,-5.9 0,0 c 1.3,-1.3 3.6,-1.3 4.9,0 l 0,0 5.9,5.9 c 1.3,1.3 1.3,3.6 0,4.9 l 0,0 c -1.3,1.29999 -3.4,1.29999 -4.8,0 l -3.6,-3.6 -3.6,3.39999 c 3.9,4.8 6.6,11 7.5,18.60001 l 1,-1 0,0 c 1.3,-1.3 3.4,-1.3 4.8,0 l 0,0 6,5.89999 c 1.3,1.3 1.3,3.4 0,4.8 l 0,0 c -1.3,1.3 -3.6,1.3 -4.8,0 l -3.6,-3.4 -3.2,3.1 c -0.3,6.10001 -1.7,11.9 -3.8,17 l 4.2,0.10001 0,0 c 1.9,0 3.4,1.6 3.4,3.29999 l 0,0 -0.1,8.5 c 0,1.9 -1.6,3.3 -3.4,3.3 l 0,0 c -1.8,0 -3.3,-1.6 -3.3,-3.3 l 0,-5 -4.1,-0.1 c -6.7,11 -17.2,18.1 -29.2,18.1 l 0,-99.4 c 1.9,0 3.6,0.20001 5.1,0.8 l 5.3,-5.3 0,0 c 0.8,-0.79999 2.1,-0.79999 2.9,0 l 0,0 3.4,3.4 c 0.9,0.8 0.9,2.1 0,2.9 l 0,0 c -0.8,0.8 -2,0.8 -2.8,0 l -2.1,-2.1 -2.8,2.9 c 5.6,3.6 8.6,10.5 8.6,16.3 -0.1,0.7 -0.2,1.4 -0.3,1.9 l 0,0 z"
       class="st14"
       inkscape:connector-curvature="0"
       inkscape:export-filename="C:\Users\kli\Desktop\Graphics\Fun\Squad\icons\bug.png"
       inkscape:export-xdpi="90"
       inkscape:export-ydpi="90" />
    <path
       inkscape:connector-curvature="0"
       class="st5"
       d="m -731.37143,710.91221 7.9,0 c 1.6,0 2.7,0.1 3.4,0.2 0.8,0.1 1.4,0.3 2.1,0.8 0.6,0.39999 1.1,1 1.4,1.7 0.4,0.7 0.7,1.4 0.7,2.2 0,1 -0.2,1.8 -0.8,2.6 -0.4,0.8 -1.1,1.3 -2,1.8 1.2,0.3 2.1,0.9 2.8,1.8 0.7,0.79999 0.9,1.79999 0.9,2.9 0,1 -0.1,1.79999 -0.6,2.7 -0.4,0.9 -1,1.6 -1.7,2 -0.8,0.6 -1.7,0.8 -2.7,1 -0.7,0 -2.3,0.1 -4.8,0.1 l -6.8,0 0,-19.8 z m 4,3.2 0,4.6 2.6,0 c 1.6,0 2.6,0 2.9,0 0.7,-0.1 1.2,-0.3 1.7,-0.8 0.3,-0.3 0.6,-0.9 0.6,-1.4 0,-0.7 -0.1,-1.1 -0.4,-1.6 -0.4,-0.3 -0.9,-0.6 -1.6,-0.7 -0.3,0 -1.6,-0.1 -3.3,-0.1 l -2.5,0 z m 0,7.9 0,5.2 3.7,0 c 1.4,0 2.3,0 2.8,-0.1 0.6,-0.1 1,-0.3 1.4,-0.8 0.3,-0.4 0.6,-1 0.6,-1.7 0,-0.7 -0.2,-1.1 -0.4,-1.6 -0.3,-0.3 -0.8,-0.70001 -1.2,-0.9 -0.6,-0.1 -1.8,-0.2 -3.6,-0.2 l -3.3,0 z m 15.7,-11.1 4,0 0,10.7 c 0,1.7 0,2.8 0.1,3.2 0.2,0.8 0.7,1.4 1.2,2 0.7,0.4 1.6,0.7 2.7,0.7 1.1,0 2,-0.2 2.6,-0.7 0.6,-0.4 0.9,-1 1,-1.7 0.1,-0.7 0.2,-1.8 0.2,-3.3 l 0,-10.9 3.9,0 0,10.3 c 0,2.3 -0.1,4 -0.3,5 -0.2,1 -0.6,1.8 -1.1,2.4 -0.6,0.7 -1.3,1.2 -2.3,1.6 -1,0.4 -2.2,0.7 -3.8,0.7 -1.9,0 -3.3,-0.2 -4.2,-0.7 -1,-0.4 -1.8,-1 -2.3,-1.7 -0.6,-0.8 -1,-1.4 -1.1,-2.20001 -0.2,-1.1 -0.4,-2.79999 -0.4,-5 l 0,-10.39999 z m 29.1,12.39999 0,-3.29999 8.6,0 0,7.79999 c -0.8,0.9 -2,1.60001 -3.6,2.10001 -1.7,0.7 -3.2,1 -4.9,1 -2,0 -3.8,-0.4 -5.3,-1.3 -1.6,-0.9 -2.7,-2.1 -3.4,-3.7 -0.8,-1.70001 -1.1,-3.3 -1.1,-5.20001 0,-2.10001 0.4,-3.9 1.2,-5.4 0.9,-1.70001 2.1,-2.89999 3.8,-3.70001 1.3,-0.7 2.9,-1 4.8,-1 2.3,0 4.3,0.60001 5.7,1.60001 1.3,1 2.2,2.39999 2.7,4.20001 l -4,0.79999 c -0.2,-1 -0.8,-1.79999 -1.6,-2.29999 -0.8,-0.5 -1.7,-0.9 -2.8,-0.9 -1.8,0 -3.1,0.6 -4.2,1.7 -1,1.1 -1.4,2.8 -1.4,4.9 0,2.3 0.4,4.1 1.6,5.3 1,1.1 2.3,1.7 4,1.7 0.9,0 1.7,-0.1 2.6,-0.4 0.8,-0.3 1.6,-0.8 2.1,-1.2 l 0,-2.70001 -4.8,0 z"
       style="fill:#414042"
       id="path8257" />
    <path
       id="path8261"
       style="clip-rule:evenodd;fill:#a890f0;fill-opacity:1;fill-rule:evenodd"
       d="m -497.47143,504.61219 c 48.7,0 88.2,39.5 88.2,88.3 0,48.7 -39.5,88.2 -88.2,88.2 -48.7,0 -88.3,-39.5 -88.3,-88.2 0,-48.9 39.6,-88.3 88.3,-88.3 l 0,0 z"
       class="st0"
       inkscape:connector-curvature="0"
       inkscape:export-filename="C:\Users\kli\Desktop\Graphics\Fun\Squad\icons\flying.png"
       inkscape:export-xdpi="90"
       inkscape:export-ydpi="90" />
    <path
       id="path8263"
       style="clip-rule:evenodd;fill:#8a69eb;fill-opacity:1;fill-rule:evenodd"
       d="m -497.47143,504.61219 c 48.7,0 88.2,39.5 88.2,88.3 0,48.7 -39.5,88.2 -88.2,88.2 l 0,-176.5 z"
       class="st1"
       inkscape:connector-curvature="0"
       inkscape:export-filename="C:\Users\kli\Desktop\Graphics\Fun\Squad\icons\flying.png"
       inkscape:export-xdpi="90"
       inkscape:export-ydpi="90" />
    <path
       id="path8265"
       style="clip-rule:evenodd;fill:#ffffff;fill-rule:evenodd"
       d="m -531.77143,589.8122 c 51.7,-38.70001 80.2,-60.89999 88.5,-55.89999 8.2,4.79999 -26.8,39.5 -25.1,45.2 1.8,5.7 28.6,5.9 28.8,10.1 0.3,4.2 -23.9,9.9 -25.7,14.7 -1.7,4.9 25.7,13.3 25.5,19.2 -0.3,5.9 -32.5,-2.2 -34.5,2 -2,4.2 5.3,18.2 0.4,21.6 -5,3.3 -24.7,-14.2 -28.7,-11.1 -3.9,3.1 -5,18.9 -26.2,16.9 -14.2,-1.3 -24.9,-11.9 -26.4,-25 -1.9,-17.7 10.8,-28.4 23.4,-37.7 l 0,0 z"
       class="st4"
       inkscape:connector-curvature="0"
       inkscape:export-filename="C:\Users\kli\Desktop\Graphics\Fun\Squad\icons\flying.png"
       inkscape:export-xdpi="90"
       inkscape:export-ydpi="90" />
    <path
       id="path8267"
       style="clip-rule:evenodd;fill:#e5e6e7;fill-rule:evenodd"
       d="m -497.47143,564.11219 c 30.2,-22.39999 47.8,-34 54.2,-30.2 8.2,4.8 -26.8,39.5 -25.1,45.2 1.8,5.70001 28.6,5.9 28.8,10.10001 0.3,4.20001 -23.9,9.89999 -25.7,14.70001 -1.7,4.89999 25.7,13.29999 25.5,19.2 -0.3,5.9 -32.5,-2.2 -34.5,2 -2,4.2 5.3,18.2 0.4,21.6 -3.9,2.6 -16.2,-7.1 -23.6,-10.5 l 0,-72.1 z"
       class="st27"
       inkscape:connector-curvature="0"
       inkscape:export-filename="C:\Users\kli\Desktop\Graphics\Fun\Squad\icons\flying.png"
       inkscape:export-xdpi="90"
       inkscape:export-ydpi="90" />
    <path
       inkscape:connector-curvature="0"
       class="st5"
       d="m -543.77143,730.5122 0,-19.7 13.5,0 0,3.29999 -9.6,0 0,4.70001 8.2,0 0,3.29999 -8.2,0 0,8.3 -3.9,0 z m 16.8,0 0,-19.6 4,0 0,16.2 9.9,0 0,3.3 -13.9,0 z m 19.3,0 0,-8.3 -7.2,-11.29999 4.7,0 4.7,7.79999 4.4,-7.79999 4.6,0 -7.2,11.5 0,8.2 -4,0 z m 13,0 0,-19.7 4,0 0,19.7 -4,0 z m 7.8,0 0,-19.7 3.9,0 8,13.1 0,-13.1 3.7,0 0,19.7 -3.9,0 -8,-12.9 0,12.9 -3.7,0 z m 28.9,-7.2 0,-3.3 8.6,0 0,7.8 c -0.8,0.89999 -2,1.6 -3.6,2.1 -1.6,0.7 -3.2,1 -4.8,1 -2.1,0 -3.9,-0.4 -5.4,-1.3 -1.4,-0.9 -2.7,-2.1 -3.4,-3.7 -0.8,-1.70001 -1.1,-3.3 -1.1,-5.20001 0,-2.1 0.4,-3.89999 1.2,-5.39999 0.9,-1.70001 2.1,-2.9 3.8,-3.70001 1.3,-0.7 2.9,-1 4.8,-1 2.4,0 4.3,0.6 5.7,1.6 1.3,1 2.2,2.4 2.7,4.20001 l -3.9,0.79999 c -0.3,-1 -0.9,-1.79999 -1.7,-2.29999 -0.7,-0.6 -1.7,-0.9 -2.8,-0.9 -1.8,0 -3.1,0.6 -4.2,1.7 -1,1.1 -1.4,2.8 -1.4,4.9 0,2.3 0.4,4.1 1.6,5.3 1,1.1 2.3,1.7 4,1.7 0.9,0 1.7,-0.1 2.6,-0.4 0.8,-0.29999 1.6,-0.79999 2.1,-1.2 l 0,-2.7 -4.8,0 z"
       style="fill:#414042"
       id="path8269" />
    <path
       id="path8273"
       style="clip-rule:evenodd;fill:#705848;fill-opacity:1;fill-rule:evenodd"
       d="m -279.37143,504.61219 c 48.7,0 88.2,39.5 88.2,88.3 0,48.7 -39.5,88.2 -88.2,88.2 -48.8,0 -88.3,-39.5 -88.3,-88.2 0,-48.9 39.5,-88.3 88.3,-88.3 l 0,0 z"
       class="st28"
       inkscape:connector-curvature="0"
       inkscape:export-filename="C:\Users\kli\Desktop\Graphics\Fun\Squad\icons\dark.png"
       inkscape:export-xdpi="90"
       inkscape:export-ydpi="90" />
    <path
       id="path8275"
       style="clip-rule:evenodd;fill:#524135;fill-opacity:1;fill-rule:evenodd"
       d="m -279.37143,504.61219 c 48.7,0 88.2,39.5 88.2,88.3 0,48.7 -39.5,88.2 -88.2,88.2 l 0,-176.5 z"
       class="st29"
       inkscape:connector-curvature="0"
       inkscape:export-filename="C:\Users\kli\Desktop\Graphics\Fun\Squad\icons\dark.png"
       inkscape:export-xdpi="90"
       inkscape:export-ydpi="90" />
    <path
       id="path8277"
       style="clip-rule:evenodd;fill:#d6c8be;fill-opacity:1;fill-rule:evenodd"
       d="m -279.37143,524.7122 c 10.8,0 21.1,2.6 30.2,7.1 -3.9,-1.1 -7.9,-1.70001 -12.1,-1.70001 -25.6,0 -46.3,20.8 -46.3,46.4 0,25.6 20.7,46.3 46.3,46.3 25.6,0 46.4,-20.7 46.4,-46.3 0,-2.4 -0.2,-4.9 -0.6,-7.2 2.7,7.3 4.1,15.2 4.1,23.6 0,37.6 -30.5,68.1 -68.1,68.1 -37.7,0 -68.2,-30.5 -68.2,-68.1 0.1,-37.7 30.6,-68.2 68.3,-68.2 l 0,0 z"
       class="st10"
       inkscape:connector-curvature="0"
       inkscape:export-filename="C:\Users\kli\Desktop\Graphics\Fun\Squad\icons\dark.png"
       inkscape:export-xdpi="90"
       inkscape:export-ydpi="90" />
    <path
       id="path8279"
       style="clip-rule:evenodd;fill:#baa291;fill-opacity:1;fill-rule:evenodd"
       d="m -279.37143,524.7122 c 10.8,0 21.1,2.6 30.2,7.1 -3.9,-1.1 -7.9,-1.70001 -12.1,-1.70001 -6.5,0 -12.6,1.3 -18.1,3.8 l 0,-9.2 z m 0,94.39999 c 5.6,2.3 11.7,3.70001 18.1,3.70001 25.6,0 46.4,-20.70001 46.4,-46.29999 0,-2.4 -0.2,-4.9 -0.6,-7.20001 2.7,7.29999 4.1,15.20001 4.1,23.60001 0,37.6 -30.5,68.1 -68.1,68.1 l 0,-41.9 z"
       class="st6"
       inkscape:connector-curvature="0"
       inkscape:export-filename="C:\Users\kli\Desktop\Graphics\Fun\Squad\icons\dark.png"
       inkscape:export-xdpi="90"
       inkscape:export-ydpi="90" />
    <path
       inkscape:connector-curvature="0"
       class="st5"
       d="m -316.37143,710.91221 7.2,0 c 1.7,0 2.9,0.1 3.8,0.29999 1.1,0.29999 2.1,1 2.9,1.89999 0.9,0.8 1.4,1.9 1.9,3.10001 0.4,1.29999 0.7,2.79999 0.7,4.70001 0,1.7 -0.2,3 -0.6,4.2 -0.6,1.4 -1.2,2.6 -2.1,3.4 -0.7,0.7 -1.7,1.2 -2.8,1.6 -0.9,0.2 -2.1,0.4 -3.6,0.4 l -7.5,0 0,-19.6 z m 4,3.29999 0,13 2.9,0 c 1.1,0 1.9,-0.10001 2.4,-0.20001 0.7,-0.1 1.1,-0.4 1.6,-0.79999 0.4,-0.4 0.8,-1 1.1,-1.9 0.2,-0.89999 0.3,-2.1 0.3,-3.70001 0,-1.39999 -0.1,-2.7 -0.3,-3.39999 -0.3,-0.79999 -0.7,-1.4 -1.2,-1.9 -0.4,-0.39999 -1,-0.79999 -1.8,-0.89999 -0.6,-0.20001 -1.7,-0.20001 -3.2,-0.20001 l -1.8,0 z m 33.6,16.29999 -4.3,0 -1.8,-4.4 -7.8,0 -1.7,4.4 -4.2,0 7.7,-19.7 4.2,0 7.9,19.7 z m -7.4,-7.7 -2.7,-7.3 -2.7,7.3 5.4,0 z m 9.5,7.7 0,-19.7 8.3,0 c 2.1,0 3.7,0.2 4.6,0.6 1,0.3 1.7,1 2.3,1.9 0.6,0.9 0.8,1.9 0.8,3.1 0,1.4 -0.4,2.7 -1.2,3.6 -0.9,1 -2.2,1.6 -3.9,1.9 0.8,0.4 1.6,1 2.1,1.7 0.6,0.60001 1.3,1.60001 2.2,3.10001 l 2.4,3.89999 -4.8,0 -2.9,-4.29999 c -1,-1.6 -1.7,-2.39999 -2.1,-2.89999 -0.3,-0.3 -0.8,-0.70001 -1.1,-0.8 -0.4,-0.1 -1.1,-0.2 -2,-0.2 l -0.9,0 0,8.2 -3.8,0 z m 3.9,-11.29999 3,0 c 1.9,0 3.1,-0.10001 3.6,-0.20001 0.4,-0.2 0.9,-0.4 1.1,-0.9 0.2,-0.29999 0.4,-0.89999 0.4,-1.39999 0,-0.70001 -0.2,-1.20001 -0.6,-1.70001 -0.3,-0.29999 -0.9,-0.7 -1.6,-0.79999 -0.3,0 -1.2,0 -2.9,0 l -3.1,0 0,5 z m 15.9,11.29999 0,-19.7 4,0 0,8.7 8,-8.7 5.3,0 -7.3,7.7 7.8,12 -5.1,0 -5.4,-9.2 -3.2,3.2 0,6 -4.1,0 z"
       style="fill:#414042"
       id="path8281" />
    <path
       id="path8285"
       style="clip-rule:evenodd;fill:#ee99ac;fill-opacity:1;fill-rule:evenodd"
       d="m -61.371429,504.61219 c 48.7,0 88.3,39.5 88.3,88.3 0,48.7 -39.6,88.2 -88.3,88.2 -48.700001,0 -88.200001,-39.5 -88.200001,-88.2 0,-48.9 39.5,-88.3 88.200001,-88.3 l 0,0 z"
       class="st30"
       inkscape:connector-curvature="0"
       inkscape:export-filename="C:\Users\kli\Desktop\Graphics\Fun\Squad\icons\fairy.png"
       inkscape:export-xdpi="90"
       inkscape:export-ydpi="90" />
    <path
       id="path8287"
       style="clip-rule:evenodd;fill:#e56280;fill-opacity:1;fill-rule:evenodd"
       d="m -61.371429,504.61219 c 48.7,0 88.3,39.5 88.3,88.3 0,48.7 -39.6,88.2 -88.3,88.2 l 0,-176.5 z"
       class="st31"
       inkscape:connector-curvature="0"
       inkscape:export-filename="C:\Users\kli\Desktop\Graphics\Fun\Squad\icons\fairy.png"
       inkscape:export-xdpi="90"
       inkscape:export-ydpi="90" />
    <path
       id="path8289"
       style="clip-rule:evenodd;fill:#ffffff;fill-rule:evenodd"
       d="m -111.77143,546.41221 c -1.8,4.79999 24.800001,36.89999 24.600001,49.79999 -0.1,6.20001 -30.400001,16.6 -22.900001,18.70001 4.9,1.39999 22.600001,-1.3 21.500001,3.29999 -1.2,4.70001 -13.200001,22.79999 -9.6,21.70001 7.3,-2.3 23.9,-13.20001 33.1,-26.9 3.1,-4.70001 4.2,-4.8 7.5,0 9.1,13.79999 25.7,24.6 33.1,26.9 3.6,1.1 -8.5,-17 -9.6,-21.70001 -1.2,-4.70001 16.6,-1.9 21.5,-3.29999 7.5000004,-2.10001 -22.8,-12.5 -22.9,-18.70001 -0.3,-12.9 26.4000004,-45 24.5,-49.79999 -1.7,-4.4 -30.2,14.7 -45.2,30.1 -5,5.1 -5.9,4.7 -10.3,0 -14.9,-15.4 -43.600001,-34.6 -45.300001,-30.1 l 0,0 z"
       class="st0"
       inkscape:connector-curvature="0"
       inkscape:export-filename="C:\Users\kli\Desktop\Graphics\Fun\Squad\icons\fairy.png"
       inkscape:export-xdpi="90"
       inkscape:export-ydpi="90" />
    <path
       id="path8291"
       style="clip-rule:evenodd;fill:#e5e6e7;fill-opacity:1;fill-rule:evenodd"
       d="m -61.371429,609.41221 c 1.1,0 2.2,1.2 3.8,3.6 9.1,13.79999 25.7,24.6 33.1,26.9 3.6,1.1 -8.5,-17 -9.6,-21.70001 -1.2,-4.70001 16.6,-1.9 21.5,-3.29999 7.5000004,-2.10001 -22.8,-12.5 -22.9,-18.70001 -0.3,-12.9 26.4000004,-45 24.5,-49.79999 -1.7,-4.4 -30.2,14.7 -45.2,30.1 -2.3,2.4 -3.8,3.6 -5.2,3.7 l 0,29.2 z"
       class="st1"
       inkscape:connector-curvature="0"
       inkscape:export-filename="C:\Users\kli\Desktop\Graphics\Fun\Squad\icons\fairy.png"
       inkscape:export-xdpi="90"
       inkscape:export-ydpi="90" />
    <path
       inkscape:connector-curvature="0"
       class="st5"
       d="m -98.571429,730.5122 0,-19.7 13.5,0 0,3.29999 -9.6,0 0,4.70001 8.2,0 0,3.29999 -8.2,0 0,8.3 -3.9,0 z m 33,0 -4.3,0 -1.7,-4.4 -7.9,0 -1.6,4.4 -4.2,0 7.7,-19.7 4.1,0 7.9,19.7 z m -7.4,-7.7 -2.7,-7.3 -2.7,7.3 5.4,0 z m 9.4,7.7 0,-19.7 4,0 0,19.7 -4,0 z m 7.8,0 0,-19.7 8.3,0 c 2.1,0 3.6,0.2 4.6,0.6 1,0.29999 1.7,1 2.3,1.9 0.6,0.89999 0.8,1.89999 0.8,3.1 0,1.4 -0.4,2.7 -1.2,3.6 -0.9,1 -2.2,1.6 -3.9,1.9 0.8,0.4 1.6,1 2.1,1.7 0.6,0.6 1.2,1.6 2.2,3.1 l 2.4,3.9 -4.8,0 -2.9,-4.3 c -1,-1.6 -1.7,-2.39999 -2.1,-2.89999 -0.3,-0.3 -0.8,-0.70001 -1.1,-0.8 -0.4,-0.1 -1.1,-0.2 -2,-0.2 l -0.9,0 0,8.2 -3.8,0 z m 3.8,-11.3 3,0 c 1.9,0 3.1,-0.1 3.6,-0.2 0.4,-0.2 0.8,-0.4 1.1,-0.9 0.2,-0.3 0.3,-0.9 0.3,-1.4 0,-0.7 -0.1,-1.2 -0.4,-1.7 -0.3,-0.3 -0.9,-0.7 -1.6,-0.8 -0.3,0 -1.2,0 -2.9,0 l -3.1,0 0,5 z m 20.1,11.3 0,-8.3 -7.2,-11.29999 4.7,0 4.7,7.79999 4.6,-7.79999 4.6,0 -7.2,11.5 0,8.2 -4.2,0 z"
       style="fill:#414042"
       id="path8293" />
    <path
       style="fill:#dadac5;fill-opacity:1"
       d="m -64.482029,362.41219 c -3.7289,-15.16305 -7.5359,-23.62394 -11.7994,-26.22385 -4.685,-2.85689 -14.9775,-2.49226 -28.719201,1.01743 -6.2462,1.5953 -12.2567,3.20984 -13.3567,3.58788 -2.3233,0.79847 -1.3142,-0.16081 11.1789,-10.62711 8.389101,-7.02811 14.903401,-15.38635 15.869401,-20.36131 0.8606,-4.43251 -3.6411,-10.50657 -17.903601,-24.15684 -6.6796,-6.39288 -11.2447,-11.27748 -10.1447,-10.8547 5.938,2.28225 18.2995,5.49586 25.113801,6.5288 13.0371,1.9762 19.2999,0.0672 22.8535,-6.96597 3.0005,-5.9385 7.1214,-19.09421 8.6799,-27.70983 l 1.2376,-6.84145 1.3689,6.5 c 3.8791,18.41882 9.5384,32.09914 13.9878,33.81263 5.3345,2.05434 9.2724,2.32214 16.9789,1.15469 6.9048,-1.04604 20.2277004,-4.45541 25.7796004,-6.59712 1.1,-0.42434 -4.1436,5.28128 -11.6526004,12.67913 -15.726,15.49338 -17.4697,18.14131 -15.7427,23.90559 1.6084,5.36853 8.7035,13.58322 19.1499,22.1717 4.8150004,3.95866 8.6294004,7.32278 8.4763004,7.47581 -0.153,0.15303 -2.8943,-0.5848 -6.0917,-1.63964 -15.5046004,-5.11501 -31.6819004,-6.45375 -37.2150004,-3.07969 -4.2457,2.58904 -8.0389,11.00603 -11.8179,26.22385 l -3.1307,12.60695 -3.1003,-12.60695 z"
       id="path8224"
       inkscape:connector-curvature="0"
       inkscape:export-filename="C:\Users\kli\Desktop\Graphics\Fun\Squad\icons\normal.png"
       inkscape:export-xdpi="90"
       inkscape:export-ydpi="90" />
    <path
       transform="translate(148.57147,-108.57144)"
       inkscape:connector-curvature="0"
       id="path8235"
       d="m -213.05354,470.98363 c -3.7289,-15.16305 -7.53588,-23.62394 -11.79941,-26.22385 -4.68496,-2.85689 -14.97742,-2.49226 -28.71914,1.01743 -6.24617,1.5953 -12.25668,3.20984 -13.35668,3.58788 -2.32334,0.79847 -1.31425,-0.16081 11.17885,-10.62711 8.38911,-7.02811 14.90343,-15.38635 15.86939,-20.36131 0.86063,-4.43251 -3.64108,-10.50657 -17.90356,-24.15684 -6.67957,-6.39288 -11.24468,-11.27748 -10.14468,-10.8547 5.93798,2.28225 18.29949,5.49586 25.1138,6.5288 13.03705,1.9762 19.29991,0.0672 22.85347,-6.96597 3.00047,-5.9385 7.1214,-19.09421 8.67991,-27.70983 l 1.23757,-6.84145 1.36892,6.5 c 3.87907,18.41882 9.53843,32.09914 13.98783,33.81263 5.33445,2.05434 9.27239,2.32214 16.97882,1.15469 6.90488,-1.04604 20.22774,-4.45541 25.77968,-6.59712 1.1,-0.42434 -4.14368,5.28128 -11.65261,12.67913 -15.72601,15.49338 -17.46977,18.14131 -15.74275,23.90559 1.60845,5.36853 8.70357,13.58322 19.14993,22.1717 4.81501,3.95866 8.62936,7.32278 8.47632,7.47581 -0.15303,0.15303 -2.8943,-0.5848 -6.09171,-1.63964 -15.50463,-5.11501 -31.68194,-6.45375 -37.215,-3.07969 -4.24571,2.58904 -8.03888,11.00603 -11.81794,26.22385 l -3.1307,12.60695 -3.10031,-12.60695 z"
       style="fill:#c1c19c;fill-opacity:1"
       clip-path="url(#clipPath8240)"
       inkscape:export-filename="C:\Users\kli\Desktop\Graphics\Fun\Squad\icons\normal.png"
       inkscape:export-xdpi="90"
       inkscape:export-ydpi="90" />
    <g
       id="g8409"
       transform="matrix(1.0485427,0,0,1.0485427,463.76017,166.72704)"
       style="fill:#c59b29;fill-opacity:1"
       inkscape:export-filename="C:\Users\kli\Desktop\Graphics\Fun\Squad\icons\ground.png"
       inkscape:export-xdpi="90"
       inkscape:export-ydpi="90">
      <path
         sodipodi:nodetypes="scssccsccs"
         inkscape:connector-curvature="0"
         id="path8376"
         d="m -961.17452,-168.42726 c -6.58342,-10.63714 -7.93048,-12.96481 -7.57614,-13.09132 0.23702,-0.0846 3.32883,-0.22906 6.87067,-0.32097 3.54185,-0.0919 26.83577,-0.7837 51.76426,-1.5373 24.92849,-0.75361 45.34078,-1.34852 45.36063,-1.32204 0.0678,0.0905 -9.58234,19.04469 -9.73515,19.19749 -0.0838,0.0838 -18.07905,2.39876 -39.98943,5.14436 -21.91039,2.74559 -37.122,4.65254 -37.67759,4.72872 l -1.01015,0.13852 z"
         style="opacity:1;fill:#c59b29;fill-opacity:1;stroke:none;stroke-width:2;stroke-linecap:round;stroke-linejoin:round;stroke-miterlimit:4;stroke-dasharray:none;stroke-dashoffset:0;stroke-opacity:1" />
      <path
         inkscape:connector-curvature="0"
         id="path8378"
         d="m -942.71034,-130.0165 c -4.9436,-9.63112 -8.94577,-17.5622 -8.89371,-17.62462 0.0994,-0.11919 71.37832,-7.58778 71.47729,-7.48937 0.0581,0.0578 -18.08138,40.86357 -18.23221,41.0144 -0.0847,0.0847 -23.40661,1.1768 -31.06986,1.45491 l -4.29315,0.1558 -8.98836,-17.51112 z"
         style="opacity:1;fill:#c59b29;fill-opacity:1;stroke:none;stroke-width:2;stroke-linecap:round;stroke-linejoin:round;stroke-miterlimit:4;stroke-dasharray:none;stroke-dashoffset:0;stroke-opacity:1" />
      <path
         inkscape:connector-curvature="0"
         id="path8380"
         d="m -923.02129,-90.769682 c -5.28366,-10.737228 -6.17818,-12.644118 -5.99722,-12.784488 0.10425,-0.0809 24.80754,-1.37517 24.90233,-1.30473 0.13029,0.0968 -13.2053,24.869947 -13.39168,24.877299 -0.11047,0.0044 -2.59151,-4.850278 -5.51343,-10.788081 z"
         style="opacity:1;fill:#c59b29;fill-opacity:1;stroke:none;stroke-width:2;stroke-linecap:round;stroke-linejoin:round;stroke-miterlimit:4;stroke-dasharray:none;stroke-dashoffset:0;stroke-opacity:1" />
    </g>
    <g
       style="fill:#aa8623;fill-opacity:1"
       transform="matrix(1.0485427,0,0,1.0485427,463.76017,166.72704)"
       id="g8416"
       clip-path="url(#clipPath8424)"
       inkscape:export-filename="C:\Users\kli\Desktop\Graphics\Fun\Squad\icons\ground.png"
       inkscape:export-xdpi="90"
       inkscape:export-ydpi="90">
      <path
         style="opacity:1;fill:#aa8623;fill-opacity:1;stroke:none;stroke-width:2;stroke-linecap:round;stroke-linejoin:round;stroke-miterlimit:4;stroke-dasharray:none;stroke-dashoffset:0;stroke-opacity:1"
         d="m -961.17452,-168.42726 c -6.58342,-10.63714 -7.93048,-12.96481 -7.57614,-13.09132 0.23702,-0.0846 3.32883,-0.22906 6.87067,-0.32097 3.54185,-0.0919 26.83577,-0.7837 51.76426,-1.5373 24.92849,-0.75361 45.34078,-1.34852 45.36063,-1.32204 0.0678,0.0905 -9.58234,19.04469 -9.73515,19.19749 -0.0838,0.0838 -18.07905,2.39876 -39.98943,5.14436 -21.91039,2.74559 -37.122,4.65254 -37.67759,4.72872 l -1.01015,0.13852 z"
         id="path8418"
         inkscape:connector-curvature="0"
         sodipodi:nodetypes="scssccsccs" />
      <path
         style="opacity:1;fill:#aa8623;fill-opacity:1;stroke:none;stroke-width:2;stroke-linecap:round;stroke-linejoin:round;stroke-miterlimit:4;stroke-dasharray:none;stroke-dashoffset:0;stroke-opacity:1"
         d="m -942.71034,-130.0165 c -4.9436,-9.63112 -8.94577,-17.5622 -8.89371,-17.62462 0.0994,-0.11919 71.37832,-7.58778 71.47729,-7.48937 0.0581,0.0578 -18.08138,40.86357 -18.23221,41.0144 -0.0847,0.0847 -23.40661,1.1768 -31.06986,1.45491 l -4.29315,0.1558 -8.98836,-17.51112 z"
         id="path8420"
         inkscape:connector-curvature="0" />
      <path
         style="opacity:1;fill:#aa8623;fill-opacity:1;stroke:none;stroke-width:2;stroke-linecap:round;stroke-linejoin:round;stroke-miterlimit:4;stroke-dasharray:none;stroke-dashoffset:0;stroke-opacity:1"
         d="m -923.02129,-90.769682 c -5.28366,-10.737228 -6.17818,-12.644118 -5.99722,-12.784488 0.10425,-0.0809 24.80754,-1.37517 24.90233,-1.30473 0.13029,0.0968 -13.2053,24.869947 -13.39168,24.877299 -0.11047,0.0044 -2.59151,-4.850278 -5.51343,-10.788081 z"
         id="path8422"
         inkscape:connector-curvature="0" />
    </g>
  </g>
</svg>
